<svg xmlns="http://www.w3.org/2000/svg" width="414.393" height="244.413" viewBox="0 0 414.393 244.413">
  <g id="cleaning" transform="translate(-22.508 -8.412)">
    <rect id="Rectangle_121" data-name="Rectangle 121" width="414.393" height="229.239" transform="translate(22.508 8.412)" fill="#f2f2f2"/>
    <path id="Path_101" data-name="Path 101" d="M677.393,158.44s-172.151,17.83-203.508,86.691S263,387.155,263,387.155H677.393Z" transform="translate(-240.492 -149.767)" opacity="0.1"/>
    <g id="Group_18" data-name="Group 18" transform="translate(272.615 47.603)">
      <path id="Path_103" data-name="Path 103" d="M673.069,343.023v2.548s-1.82.728-1.82,3.64-1.456,13.832-1.456,13.832,2.548,2.184,4.732,1.456a8.892,8.892,0,0,0,3.276-1.82l.364-11.284-1.456-2.912v-5.1Z" transform="translate(-669.793 -241.833)" fill="#d1215f"/>
      <path id="Path_104" data-name="Path 104" d="M781.24,178.44s-6.33.728-6.33,3.64-5.064,13.832-5.064,13.832,8.862,2.184,16.459,1.456a70.063,70.063,0,0,0,11.395-1.82l1.266-11.284-5.064-2.912Z" transform="translate(-708.33 -178.44)" fill="#d1215f"/>
      <path id="Path_105" data-name="Path 105" d="M786.955,205.971v-6.916s-7.644-15.288-1.456-15.288,6.916,13.832,6.916,13.832v9.828Z" transform="translate(-713.429 -180.492)" fill="#ffb8b8"/>
      <path id="Path_106" data-name="Path 106" d="M678.931,337.087s-4-2.184-4.732,0-2.912,6.916,0,7.28,5.824-2.184,5.824-2.184Z" transform="translate(-670.923 -239.173)" fill="#ffb8b8"/>
      <path id="Path_107" data-name="Path 107" d="M714.408,359.771s-2.192,2.895.988,31.135,1.348,48.8,7.384,48.521c0,0-1.576,6.124,3.554,6.35s7.473.582,7.873-.833,1.025-7.959-.369-7.894c0,0,.087,1.858.669-5.616s-1.066-42.766,1.039-47.518l8.232,16.835s.369,7.894,1.935,11.544,4.886,24.9,4.886,24.9l-.313,3.272s11.232,1.337,11.609-.542.248-4.665-.26-5.572-.508-.907.334-2.808a5.629,5.629,0,0,0,.247-4.665c-.529-1.371-1.939-31.556-1.939-31.556s-2.641-36.642-8.3-38.24S714.408,359.771,714.408,359.771Z" transform="translate(-686.694 -247.112)" fill="#2f2e41"/>
      <path id="Path_108" data-name="Path 108" d="M725.876,495.659l-3.411,6.675s-5.9-1.819-4.492,3.467a92.9,92.9,0,0,0,16.939-1.023s2.365.82,2.765-.594-1.454-6.215-2.847-6.15S725.876,495.659,725.876,495.659Z" transform="translate(-688.267 -300.624)" fill="#2f2e41"/>
      <path id="Path_109" data-name="Path 109" d="M773.214,489.322s-3.325,8.532-1.91,8.932,14.04,1.671,14.99,2.092,5.616.669,5.95-2.139a3.419,3.419,0,0,0-2.5-3.607s-5.152-.69-6.761-5.269S773.214,489.322,773.214,489.322Z" transform="translate(-708.757 -297.403)" fill="#2f2e41"/>
      <circle id="Ellipse_33" data-name="Ellipse 33" cx="9.723" cy="9.723" r="9.723" transform="translate(23.209 23.984)" fill="#ffb8b8"/>
      <path id="Path_110" data-name="Path 110" d="M715.033,239.133s2.559,13.305,1.535,15.864,14.329-1.023,14.329-1.023-3.07-13.305-2.559-16.376S715.033,239.133,715.033,239.133Z" transform="translate(-687.218 -200.819)" fill="#ffb8b8"/>
      <path id="Path_111" data-name="Path 111" d="M715.936,213.676a5.5,5.5,0,0,0-2.432.107,6.344,6.344,0,0,0-1.729,1.134,20.228,20.228,0,0,1-2.955,1.958,6.9,6.9,0,0,0-2.3,1.612,4.895,4.895,0,0,0-.649,1.229,14.721,14.721,0,0,0-.774,8.012,3.686,3.686,0,0,0,.341,1.1c.532.98,1.707,1.366,2.7,1.88,1.879.975,3.3,2.618,4.844,4.069a9.468,9.468,0,0,0,1.914,1.475c2.2,1.2,4.886.808,7.353.384a1.325,1.325,0,0,0,1.323-1.338l1.948-8.761a14.292,14.292,0,0,0,.5-3.985,11.339,11.339,0,0,0-2.848-6.584C721.349,214.208,718.313,213.928,715.936,213.676Z" transform="translate(-683.299 -191.978)" fill="#2f2e41"/>
      <path id="Path_112" data-name="Path 112" d="M704.622,263.484s.728-5.1,5.1-5.46a36.012,36.012,0,0,0,7.28-1.456c.364,0,5.1.364,7.28,2.548,0,0,1.456,2.184,2.184.728s.728-2.184,2.184-1.456,1.456-2.184,4-1.82,9.1,16.744,9.1,16.744l-2.184,2.548s-2.912,19.656,2.184,28.027,7.28,17.472,2.184,19.292-40.767,18.2-39.311,8.008.364-26.208-1.092-26.571-9.464-29.119-9.464-29.119a11.306,11.306,0,0,1,6.552-8.372C706.442,264.576,704.622,263.484,704.622,263.484Z" transform="translate(-679.142 -208.521)" fill="#f9a826"/>
      <path id="Path_113" data-name="Path 113" d="M753.86,242.537l1.82-1.456s3.276,0,3.64-.728,2.184-.728,3.64-1.456-.364-1.82,1.456-2.548,1.82,0,1.82-1.82,4.732-3.64,5.1-5.824,4-12.376,4-12.376l6.916,2.184-1.82,13.1s0,6.552-3.276,10.92-10.556,15.288-14.2,15.652S753.86,242.537,753.86,242.537Z" transform="translate(-702.173 -193.034)" fill="#f9a826"/>
      <path id="Path_114" data-name="Path 114" d="M691.461,284.412l-2.184,1.82s-.728,8.008-.728,8.372.728,4.732,0,5.1-2.184,7.644-1.82,8.008h0V308.8l-5.1,8.008v7.644l12.012-7.644s6.916-.728,5.824-6.916S691.461,284.412,691.461,284.412Z" transform="translate(-674.353 -219.258)" fill="#f9a826"/>
    </g>
  </g>
</svg>
