<svg xmlns="http://www.w3.org/2000/svg" width="433" height="240.174" viewBox="0 0 433 240.174">
  <g id="distancia" transform="translate(0 0.006)">
    <circle id="Ellipse_4" data-name="Ellipse 4" cx="24.799" cy="24.799" r="24.799" transform="translate(88.731 25.636)" fill="#ff6584"/>
    <path id="Path_27" data-name="Path 27" d="M420.558,357.338H298.9a2.48,2.48,0,0,1-.455-.036l57.537-99.663a4.029,4.029,0,0,1,7.013,0l38.615,66.881,1.85,3.2Z" transform="translate(-229.263 -230.482)" fill="#3f3d56"/>
    <path id="Path_28" data-name="Path 28" d="M348.094,225.319H306.558l20.39-29.617,1.467-2.133.734-1.066,1.85,3.2Z" transform="translate(-156.798 -98.464)" opacity="0.2"/>
    <path id="Path_29" data-name="Path 29" d="M576.9,388.091H471.675l20.39-29.617,1.467-2.134,26.57-38.6a5.376,5.376,0,0,1,7.98-.477,4.81,4.81,0,0,1,.383.477Z" transform="translate(-317.864 -261.236)" fill="#3f3d56"/>
    <circle id="Ellipse_5" data-name="Ellipse 5" cx="7.473" cy="7.473" r="7.473" transform="translate(282.446 95.514)" fill="#f9a826"/>
    <path id="Path_30" data-name="Path 30" d="M593.336,232.15H591.8l.7-23.634Z" transform="translate(-302.697 -106.655)" fill="#3f3d56"/>
    <path id="Path_31" data-name="Path 31" d="M593.3,215.3l1.643-2.274-1.666,2.836-.18-.315Z" transform="translate(-303.357 -108.964)" fill="#3f3d56"/>
    <path id="Path_32" data-name="Path 32" d="M591.42,220l-1.643-2.273,1.666,2.836.18-.315Z" transform="translate(-301.659 -111.368)" fill="#3f3d56"/>
    <circle id="Ellipse_6" data-name="Ellipse 6" cx="7.473" cy="7.473" r="7.473" transform="translate(350.993 95.514)" fill="#f9a826"/>
    <path id="Path_33" data-name="Path 33" d="M733.652,232.15h-1.531l.7-23.634Z" transform="translate(-374.466 -106.655)" fill="#3f3d56"/>
    <path id="Path_34" data-name="Path 34" d="M733.614,215.3l1.643-2.274-1.666,2.836-.18-.315Z" transform="translate(-375.126 -108.964)" fill="#3f3d56"/>
    <path id="Path_35" data-name="Path 35" d="M731.737,220l-1.643-2.273,1.666,2.836.18-.315Z" transform="translate(-373.429 -111.368)" fill="#3f3d56"/>
    <circle id="Ellipse_7" data-name="Ellipse 7" cx="11.036" cy="11.036" r="11.036" transform="translate(300.529 81.216)" fill="#f9a826"/>
    <path id="Path_36" data-name="Path 36" d="M637.585,220.349h-2.26l1.03-34.9Z" transform="translate(-324.956 -94.854)" fill="#3f3d56"/>
    <path id="Path_37" data-name="Path 37" d="M637.529,195.47l2.426-3.357L637.5,196.3l-.266-.466Z" transform="translate(-325.931 -98.265)" fill="#3f3d56"/>
    <path id="Path_38" data-name="Path 38" d="M634.758,202.411l-2.426-3.357,2.46,4.188.266-.465Z" transform="translate(-323.425 -101.815)" fill="#3f3d56"/>
    <circle id="Ellipse_8" data-name="Ellipse 8" cx="11.036" cy="11.036" r="11.036" transform="translate(327.443 81.216)" fill="#f9a826"/>
    <path id="Path_39" data-name="Path 39" d="M692.679,220.349h-2.26l1.03-34.9Z" transform="translate(-353.136 -94.854)" fill="#3f3d56"/>
    <path id="Path_40" data-name="Path 40" d="M692.623,195.47l2.427-3.357-2.46,4.189-.266-.466Z" transform="translate(-354.11 -98.265)" fill="#3f3d56"/>
    <path id="Path_41" data-name="Path 41" d="M689.851,202.411l-2.427-3.357,2.46,4.188.266-.465Z" transform="translate(-351.604 -101.815)" fill="#3f3d56"/>
    <circle id="Ellipse_9" data-name="Ellipse 9" cx="11.036" cy="11.036" r="11.036" transform="translate(257.634 81.216)" fill="#f9a826"/>
    <path id="Path_42" data-name="Path 42" d="M549.779,220.349h-2.26l1.031-34.9Z" transform="translate(-280.045 -94.854)" fill="#3f3d56"/>
    <path id="Path_43" data-name="Path 43" d="M549.724,195.47l2.427-3.357-2.46,4.189-.266-.466Z" transform="translate(-281.02 -98.265)" fill="#3f3d56"/>
    <path id="Path_44" data-name="Path 44" d="M546.952,202.411l-2.427-3.357,2.46,4.188.266-.465Z" transform="translate(-278.514 -101.815)" fill="#3f3d56"/>
    <path id="Path_45" data-name="Path 45" d="M560.8,573.364H200.629a34.555,34.555,0,0,1,0-69.11H560a13.29,13.29,0,1,0,0-26.581H188.668V456.409H560a34.555,34.555,0,1,1,0,69.11H200.629a13.29,13.29,0,0,0,0,26.581H560.8Z" transform="translate(-161.555 -333.195)" fill="#e6e6e6"/>
    <rect id="Rectangle_31" data-name="Rectangle 31" width="16.48" height="1.063" transform="translate(40.403 133.314)" fill="#fff"/>
    <rect id="Rectangle_32" data-name="Rectangle 32" width="16.48" height="1.063" transform="translate(87.185 133.314)" fill="#fff"/>
    <rect id="Rectangle_33" data-name="Rectangle 33" width="16.48" height="1.063" transform="translate(133.967 133.314)" fill="#fff"/>
    <rect id="Rectangle_34" data-name="Rectangle 34" width="16.48" height="1.063" transform="translate(180.749 133.314)" fill="#fff"/>
    <rect id="Rectangle_35" data-name="Rectangle 35" width="16.48" height="1.063" transform="translate(227.531 133.314)" fill="#fff"/>
    <rect id="Rectangle_36" data-name="Rectangle 36" width="16.48" height="1.063" transform="translate(274.313 133.314)" fill="#fff"/>
    <rect id="Rectangle_37" data-name="Rectangle 37" width="16.48" height="1.063" transform="translate(321.095 133.314)" fill="#fff"/>
    <rect id="Rectangle_38" data-name="Rectangle 38" width="16.48" height="1.063" transform="translate(367.877 133.314)" fill="#fff"/>
    <rect id="Rectangle_39" data-name="Rectangle 39" width="16.48" height="1.063" transform="translate(40.403 181.159)" fill="#fff"/>
    <rect id="Rectangle_40" data-name="Rectangle 40" width="16.48" height="1.063" transform="translate(87.185 181.159)" fill="#fff"/>
    <rect id="Rectangle_41" data-name="Rectangle 41" width="16.48" height="1.063" transform="translate(133.967 181.159)" fill="#fff"/>
    <rect id="Rectangle_42" data-name="Rectangle 42" width="16.48" height="1.063" transform="translate(180.749 181.159)" fill="#fff"/>
    <rect id="Rectangle_43" data-name="Rectangle 43" width="16.48" height="1.063" transform="translate(227.531 181.159)" fill="#fff"/>
    <rect id="Rectangle_44" data-name="Rectangle 44" width="16.48" height="1.063" transform="translate(274.313 181.159)" fill="#fff"/>
    <rect id="Rectangle_45" data-name="Rectangle 45" width="16.48" height="1.063" transform="translate(321.095 181.159)" fill="#fff"/>
    <rect id="Rectangle_46" data-name="Rectangle 46" width="16.48" height="1.063" transform="translate(367.877 181.159)" fill="#fff"/>
    <rect id="Rectangle_47" data-name="Rectangle 47" width="16.48" height="1.063" transform="translate(40.403 229.005)" fill="#fff"/>
    <rect id="Rectangle_48" data-name="Rectangle 48" width="16.48" height="1.063" transform="translate(87.185 229.005)" fill="#fff"/>
    <rect id="Rectangle_49" data-name="Rectangle 49" width="16.48" height="1.063" transform="translate(133.967 229.005)" fill="#fff"/>
    <rect id="Rectangle_50" data-name="Rectangle 50" width="16.48" height="1.063" transform="translate(180.749 229.005)" fill="#fff"/>
    <rect id="Rectangle_51" data-name="Rectangle 51" width="16.48" height="1.063" transform="translate(227.531 229.005)" fill="#fff"/>
    <rect id="Rectangle_52" data-name="Rectangle 52" width="16.48" height="1.063" transform="translate(274.313 229.005)" fill="#fff"/>
    <rect id="Rectangle_53" data-name="Rectangle 53" width="16.48" height="1.063" transform="translate(321.095 229.005)" fill="#fff"/>
    <rect id="Rectangle_54" data-name="Rectangle 54" width="16.48" height="1.063" transform="translate(367.877 229.005)" fill="#fff"/>
    <path id="Path_46" data-name="Path 46" d="M728.918,295.962a14.164,14.164,0,0,0-2.953-2.786h6.167A10.315,10.315,0,0,0,728.918,295.962Z" transform="translate(-447.929 -249.704)" fill="none"/>
    <path id="Path_47" data-name="Path 47" d="M690.743,293.176h1.063c-.228.16-.457.32-.676.494C691.006,293.5,690.873,293.34,690.743,293.176Z" transform="translate(-429.913 -249.705)" fill="none"/>
    <path id="Path_48" data-name="Path 48" d="M743.525,290.559a10.177,10.177,0,0,1,4.948,1.279h-9.884a10.133,10.133,0,0,1,4.936-1.279Z" transform="translate(-454.386 -248.366)" fill="#e6e6e6"/>
    <path id="Path_49" data-name="Path 49" d="M700.985,287.941a13.983,13.983,0,0,1,8.077,2.557H692.919A13.98,13.98,0,0,1,700.985,287.941Z" transform="translate(-431.026 -247.027)" fill="#e6e6e6"/>
    <path id="Path_50" data-name="Path 50" d="M487,228.912a26.212,26.212,0,0,1,51.428-5.526c.318-.011.635-.024.955-.024a26.217,26.217,0,0,1,25.149,18.822,18.525,18.525,0,0,1,21.983,5.473H504.755A17.73,17.73,0,0,1,486.986,229.3Q486.994,229.106,487,228.912Z" transform="translate(-325.69 -204.184)" fill="#e6e6e6"/>
    <path id="Path_51" data-name="Path 51" d="M774.222,335.138a14.165,14.165,0,0,1,2.953-2.786h-6.167a10.315,10.315,0,0,1,3.214,2.786Z" transform="translate(-470.967 -269.742)" fill="none"/>
    <path id="Path_52" data-name="Path 52" d="M817.741,332.352h-1.063c.228.16.458.32.676.494C817.478,332.677,817.611,332.516,817.741,332.352Z" transform="translate(-494.327 -269.742)" fill="none"/>
    <path id="Path_53" data-name="Path 53" d="M755.724,329.734a10.176,10.176,0,0,0-4.948,1.279h9.884A10.133,10.133,0,0,0,755.724,329.734Z" transform="translate(-460.619 -268.403)" fill="#e6e6e6"/>
    <path id="Path_54" data-name="Path 54" d="M791.709,327.117a13.983,13.983,0,0,0-8.077,2.557h16.143A13.98,13.98,0,0,0,791.709,327.117Z" transform="translate(-477.424 -267.065)" fill="#e6e6e6"/>
    <path id="Path_55" data-name="Path 55" d="M918.368,268.088a26.212,26.212,0,0,0-51.428-5.526c-.318-.011-.635-.024-.955-.024a26.217,26.217,0,0,0-25.149,18.822,18.525,18.525,0,0,0-21.982,5.473h81.765a17.73,17.73,0,0,0,17.769-18.357Q918.378,268.281,918.368,268.088Z" transform="translate(-495.44 -224.222)" fill="#e6e6e6"/>
    <rect id="Rectangle_55" data-name="Rectangle 55" width="9.503" height="1.508" transform="matrix(-1, -0.001, 0.001, -1, 377.919, 225.316)" fill="#3f3d56"/>
    <path id="Path_56" data-name="Path 56" d="M770.332,624.355l1.961.454,74.515.04.67-1.561a15.758,15.758,0,0,0,1.159-8.521c-.321-2.156-1.125-4.3-2.952-5.229l-3.307-22.025-41.226-.074L785.2,600.3s-7.524-.135-11.611,4.953a11.944,11.944,0,0,0-2.5,6.578l-.161,2.647Z" transform="translate(-470.622 -400.215)" fill="#f9a826"/>
    <circle id="Ellipse_10" data-name="Ellipse 10" cx="9.201" cy="9.201" r="9.201" transform="translate(306.875 214.571)" fill="#3f3d56"/>
    <circle id="Ellipse_11" data-name="Ellipse 11" cx="4.843" cy="4.843" r="4.843" transform="translate(311.234 218.929)" fill="#ccc"/>
    <circle id="Ellipse_12" data-name="Ellipse 12" cx="9.201" cy="9.201" r="9.201" transform="translate(352.279 214.595)" fill="#3f3d56"/>
    <circle id="Ellipse_13" data-name="Ellipse 13" cx="4.843" cy="4.843" r="4.843" transform="translate(356.637 218.953)" fill="#ccc"/>
    <path id="Path_57" data-name="Path 57" d="M656.92,397.2l22.258.009H681.9l4.587,0v-.335l0-4.034,0-4.53h-3.052l-2.717,0-4.813,0H673.19l-5.556,0Z" transform="translate(-336.002 -198.612)" fill="#fff"/>
    <path id="Path_58" data-name="Path 58" d="M724.849,397.227l11.764.006,0-2.308v-4.034l0-2.556H734.9l-2.717,0-7.327,0Z" transform="translate(-370.746 -198.626)" fill="#fff"/>
    <rect id="Rectangle_56" data-name="Rectangle 56" width="1.508" height="2.866" transform="matrix(-1, -0.001, 0.001, -1, 350.475, 208.105)" fill="#3f3d56"/>
    <rect id="Rectangle_57" data-name="Rectangle 57" width="1.508" height="2.866" transform="matrix(-0.001, 1, -1, -0.001, 326.951, 201.153)" fill="#3f3d56"/>
    <path id="Path_59" data-name="Path 59" d="M0,0H.166A3.153,3.153,0,0,1,3.318,3.153h0A3.153,3.153,0,0,1,.166,6.305H0Z" transform="matrix(-1, -0.001, 0.001, -1, 325.892, 201.817)" fill="#3f3d56"/>
    <path id="Path_60" data-name="Path 60" d="M771.559,633.138a4.873,4.873,0,0,0,2.66-9.226,11.944,11.944,0,0,0-2.5,6.578Z" transform="translate(-471.249 -418.87)" fill="#3f3d56"/>
    <path id="Path_61" data-name="Path 61" d="M705.639,388.316l5.763,8.567,0-4.034-3.049-4.53Z" transform="translate(-360.921 -198.619)" fill="#f2f2f2"/>
    <path id="Path_62" data-name="Path 62" d="M739.854,388.335l4.436,6.594v-4.034l-1.719-2.556Z" transform="translate(-378.421 -198.629)" fill="#f2f2f2"/>
    <path id="Path_63" data-name="Path 63" d="M690.225,388.309l5.988,8.9h2.717l-5.988-8.9Z" transform="translate(-353.037 -198.615)" fill="#f2f2f2"/>
    <circle id="Ellipse_14" data-name="Ellipse 14" cx="24.454" cy="24.454" r="24.454" transform="translate(0 103.012)" fill="#3f3d56"/>
    <path id="Path_64" data-name="Path 64" d="M193.626,438.523l-12.238-12.238a2.127,2.127,0,0,1,3.007-3.007l9.027,9.027,28.805-32.848a2.126,2.126,0,0,1,3.2,2.8Z" transform="translate(-169.07 -303.695)" fill="#f9a826"/>
  </g>
</svg>
