<svg xmlns="http://www.w3.org/2000/svg" xmlns:xlink="http://www.w3.org/1999/xlink" width="621.333" height="365.024" viewBox="0 0 621.333 365.024">
  <defs>
    <linearGradient id="linear-gradient" x1="0.5" y1="1" x2="0.5" gradientUnits="objectBoundingBox">
      <stop offset="0" stop-color="gray" stop-opacity="0.251"/>
      <stop offset="0.54" stop-color="gray" stop-opacity="0.122"/>
      <stop offset="1" stop-color="gray" stop-opacity="0.102"/>
    </linearGradient>
  </defs>
  <g id="draw-mudança" transform="translate(-53.624 0)">
    <path id="Path_65" data-name="Path 65" d="M625.805,380.775a106.777,106.777,0,0,1-13.649,52.614c0,19.4-8.434,36.989-22.115,49.807a76.1,76.1,0,0,1-11.016,8.58c-.157.106-.319.207-.481.308-.293.185-.585.37-.883.561l-.277.174h0a81.5,81.5,0,0,1-42.369,11.668H141.484c-27.136,0-51.7-10.133-69.5-26.509s-28.767-39.04-28.767-64.036A106.545,106.545,0,0,1,28,358.643c0-55.562,41.407-100.605,92.493-100.605,1.808,0,3.6.067,5.382.174,32.054-58.622,104.355-99.5,188.35-99.5,51.639,0,98.842,15.44,135,40.952a86.283,86.283,0,0,1,44.9-12.638c51.075,0,92.493,45.043,92.493,100.605q-.011,5.273-.523,10.525c24.985,18.969,39.8,49.79,39.714,82.621Z" transform="translate(49.152 -139.464)" fill="#f9a826" opacity="0.1"/>
    <ellipse id="Ellipse_15" data-name="Ellipse 15" cx="185.787" cy="5.885" rx="185.787" ry="5.885" transform="translate(53.624 261.313)" fill="#f9a826" opacity="0.1"/>
    <g id="Group_15" data-name="Group 15" transform="translate(53.624 103.268)" opacity="0.7">
      <rect id="Rectangle_58" data-name="Rectangle 58" width="70.055" height="38.671" transform="translate(0 120.495)" fill="#65617d"/>
      <rect id="Rectangle_59" data-name="Rectangle 59" width="21.297" height="4.484" transform="translate(24.66 127.221)" opacity="0.1"/>
      <rect id="Rectangle_60" data-name="Rectangle 60" width="15.973" height="3.363" transform="translate(27.322 127.781)" opacity="0.1"/>
      <rect id="Rectangle_61" data-name="Rectangle 61" width="70.055" height="38.671" transform="translate(71.176 120.495)" fill="#65617d"/>
      <rect id="Rectangle_62" data-name="Rectangle 62" width="21.297" height="4.484" transform="translate(95.836 127.221)" opacity="0.1"/>
      <rect id="Rectangle_63" data-name="Rectangle 63" width="15.973" height="3.363" transform="translate(98.498 127.781)" opacity="0.1"/>
      <rect id="Rectangle_64" data-name="Rectangle 64" width="70.055" height="38.671" transform="translate(0 80.704)" fill="#65617d"/>
      <rect id="Rectangle_65" data-name="Rectangle 65" width="21.297" height="4.484" transform="translate(24.66 87.429)" opacity="0.1"/>
      <rect id="Rectangle_66" data-name="Rectangle 66" width="15.973" height="3.363" transform="translate(27.322 87.99)" opacity="0.1"/>
      <rect id="Rectangle_67" data-name="Rectangle 67" width="70.055" height="38.671" transform="translate(71.176 80.704)" fill="#65617d"/>
      <rect id="Rectangle_68" data-name="Rectangle 68" width="21.297" height="4.484" transform="translate(95.836 87.429)" opacity="0.1"/>
      <rect id="Rectangle_69" data-name="Rectangle 69" width="15.973" height="3.363" transform="translate(98.498 87.99)" opacity="0.1"/>
      <rect id="Rectangle_70" data-name="Rectangle 70" width="70.055" height="38.671" transform="translate(0 40.352)" fill="#65617d"/>
      <rect id="Rectangle_71" data-name="Rectangle 71" width="21.297" height="4.484" transform="translate(24.66 47.077)" opacity="0.1"/>
      <rect id="Rectangle_72" data-name="Rectangle 72" width="15.973" height="3.363" transform="translate(27.322 47.638)" opacity="0.1"/>
      <rect id="Rectangle_73" data-name="Rectangle 73" width="70.055" height="38.671" transform="translate(71.176 40.352)" fill="#65617d"/>
      <rect id="Rectangle_74" data-name="Rectangle 74" width="21.297" height="4.484" transform="translate(95.836 47.077)" opacity="0.1"/>
      <rect id="Rectangle_75" data-name="Rectangle 75" width="15.973" height="3.363" transform="translate(98.498 47.638)" opacity="0.1"/>
      <rect id="Rectangle_76" data-name="Rectangle 76" width="70.055" height="38.671" transform="translate(71.176)" fill="#65617d"/>
      <rect id="Rectangle_77" data-name="Rectangle 77" width="21.297" height="4.484" transform="translate(95.836 6.725)" opacity="0.1"/>
      <rect id="Rectangle_78" data-name="Rectangle 78" width="15.973" height="3.363" transform="translate(98.498 7.286)" opacity="0.1"/>
    </g>
    <g id="Group_16" data-name="Group 16" transform="translate(195.977 102.707)" opacity="0.7">
      <rect id="Rectangle_79" data-name="Rectangle 79" width="70.055" height="38.671" transform="translate(0 120.495)" fill="#65617d"/>
      <rect id="Rectangle_80" data-name="Rectangle 80" width="21.297" height="4.484" transform="translate(24.66 127.221)" opacity="0.1"/>
      <rect id="Rectangle_81" data-name="Rectangle 81" width="15.973" height="3.363" transform="translate(27.322 127.781)" opacity="0.1"/>
      <rect id="Rectangle_82" data-name="Rectangle 82" width="70.055" height="38.671" transform="translate(71.176 120.495)" fill="#65617d"/>
      <rect id="Rectangle_83" data-name="Rectangle 83" width="21.297" height="4.484" transform="translate(95.836 127.221)" opacity="0.1"/>
      <rect id="Rectangle_84" data-name="Rectangle 84" width="15.973" height="3.363" transform="translate(98.498 127.781)" opacity="0.1"/>
      <rect id="Rectangle_85" data-name="Rectangle 85" width="70.055" height="38.671" transform="translate(0 80.704)" fill="#65617d"/>
      <rect id="Rectangle_86" data-name="Rectangle 86" width="21.297" height="4.484" transform="translate(24.66 87.429)" opacity="0.1"/>
      <rect id="Rectangle_87" data-name="Rectangle 87" width="15.973" height="3.363" transform="translate(27.322 87.99)" opacity="0.1"/>
      <rect id="Rectangle_88" data-name="Rectangle 88" width="70.055" height="38.671" transform="translate(71.176 80.704)" fill="#65617d"/>
      <rect id="Rectangle_89" data-name="Rectangle 89" width="21.297" height="4.484" transform="translate(95.836 87.429)" opacity="0.1"/>
      <rect id="Rectangle_90" data-name="Rectangle 90" width="15.973" height="3.363" transform="translate(98.498 87.99)" opacity="0.1"/>
      <rect id="Rectangle_91" data-name="Rectangle 91" width="70.055" height="38.671" transform="translate(0 40.352)" fill="#65617d"/>
      <rect id="Rectangle_92" data-name="Rectangle 92" width="21.297" height="4.484" transform="translate(24.66 47.077)" opacity="0.1"/>
      <rect id="Rectangle_93" data-name="Rectangle 93" width="15.973" height="3.363" transform="translate(27.322 47.638)" opacity="0.1"/>
      <rect id="Rectangle_94" data-name="Rectangle 94" width="70.055" height="38.671" transform="translate(71.176 40.352)" fill="#65617d"/>
      <rect id="Rectangle_95" data-name="Rectangle 95" width="21.297" height="4.484" transform="translate(95.836 47.077)" opacity="0.1"/>
      <rect id="Rectangle_96" data-name="Rectangle 96" width="15.973" height="3.363" transform="translate(98.498 47.638)" opacity="0.1"/>
      <rect id="Rectangle_97" data-name="Rectangle 97" width="70.055" height="38.671" transform="translate(71.176)" fill="#65617d"/>
      <rect id="Rectangle_98" data-name="Rectangle 98" width="21.297" height="4.484" transform="translate(95.836 6.725)" opacity="0.1"/>
      <rect id="Rectangle_99" data-name="Rectangle 99" width="15.973" height="3.363" transform="translate(98.498 7.286)" opacity="0.1"/>
    </g>
    <path id="Path_66" data-name="Path 66" d="M873.279,124.432s-47.184-2.847-41.635,30.219c0,0-1.121,5.845,4.192,8.5,0,0,.084-2.449,4.842-1.614a22.136,22.136,0,0,0,5.128.247,10.681,10.681,0,0,0,6.266-2.589h0s13.266-5.481,18.422-27.159c0,0,3.817-4.73,3.665-5.946l-7.964,3.4s2.724,5.745.56,10.52c0,0-.258-10.312-1.788-10.088-.308.05-4.136,1.99-4.136,1.99s4.68,10,1.149,17.278c0,0,1.34-12.33-2.612-16.555l-5.6,3.273s5.47,10.335,1.76,18.769c0,0,.953-12.935-2.942-17.973l-5.078,3.962s5.139,10.189,2.006,17.183c0,0-.409-15.059-3.1-16.2,0,0-4.444,3.923-5.122,5.526,0,0,3.519,7.4,1.334,11.3,0,0-1.339-10.032-2.438-10.088,0,0-4.427,6.647-4.887,11.209,0,0,.19-6.781,3.816-11.842,0,0-4.282.734-6.781,3.514,0,0,.69-4.7,7.874-5.111,0,0,3.66-5.044,4.635-5.352,0,0-7.14-.594-11.472,1.323,0,0,3.811-4.433,12.784-2.416l5.016-4.1s-9.4-1.283-13.395.135c0,0,4.59-3.923,14.745-1.059l5.47-3.239s-8.02-1.726-12.795-1.121c0,0,5.044-2.718,14.4.23l3.923-1.754s-5.874-1.155-7.594-1.339-1.81-.656-1.81-.656a20.372,20.372,0,0,1,11.035,1.227S873.425,124.953,873.279,124.432Z" transform="translate(-407.006 -124.37)" fill="#f9a826" opacity="0.1"/>
    <path id="Path_67" data-name="Path 67" d="M787.544,139.468s-21.3-1.289-18.8,13.658a3.646,3.646,0,0,0,1.889,3.839s.039-1.121,2.191-.734a9.815,9.815,0,0,0,2.314.112,4.8,4.8,0,0,0,2.83-1.171h0s6-2.472,8.328-12.268c0,0,1.721-2.141,1.653-2.69l-3.6,1.536s1.233,2.6.263,4.758c0,0-.118-4.663-.807-4.551-.14,0-1.872.9-1.872.9s2.118,4.523.521,7.813c0,0,.605-5.571-1.183-7.482l-2.533,1.48s2.477,4.668.8,8.48c0,0,.432-5.845-1.328-8.121l-2.292,1.788s2.32,4.607.908,7.768c0,0-.185-6.809-1.407-7.319a14.064,14.064,0,0,0-2.315,2.5s1.592,3.363.605,5.1c0,0-.605-4.534-1.121-4.551,0,0-2,3-2.208,5.044A10.957,10.957,0,0,1,772.1,150a6.031,6.031,0,0,0-3.066,1.586s.314-2.118,3.559-2.309a15.33,15.33,0,0,1,2.1-2.416,13.141,13.141,0,0,0-5.184.6s1.721-2.006,5.778-1.093l2.242-1.849s-4.248-.56-6.053.062c0,0,2.074-1.771,6.664-.482l2.466-1.474a22.163,22.163,0,0,0-5.784-.5s2.281-1.233,6.507.1l1.765-.79s-2.657-.527-3.435-.605-.818-.3-.818-.3a9.186,9.186,0,0,1,4.988.56S787.611,139.7,787.544,139.468Z" transform="translate(-379.467 -130.994)" fill="#f9a826" opacity="0.1"/>
    <ellipse id="Ellipse_16" data-name="Ellipse 16" cx="22.535" cy="3.811" rx="22.535" ry="3.811" transform="translate(77.152 353.73)" fill="#f9a826"/>
    <path id="Path_68" data-name="Path 68" d="M252.475,743.063a6.525,6.525,0,0,0,2.146-3.245,2.894,2.894,0,0,0-1.5-3.3c-1.379-.527-2.853.432-3.968,1.4s-2.4,2.068-3.856,1.861a5.884,5.884,0,0,0,1.816-5.5,2.308,2.308,0,0,0-.5-1.121c-.768-.818-2.152-.471-3.071.174-2.914,2.051-3.727,6.013-3.744,9.572a17.994,17.994,0,0,1-.05-3.923,4.042,4.042,0,0,0-1.485-3.492,4.433,4.433,0,0,0-2.242-.527,4.655,4.655,0,0,0-3.66,1.042c-1.121,1.188-.824,3.183.14,4.484a14.268,14.268,0,0,0,3.794,3.038A8.407,8.407,0,0,1,239,746.106a2.34,2.34,0,0,1,.2.465h8.216A22.856,22.856,0,0,0,252.475,743.063Z" transform="translate(-143.468 -391.755)" fill="#f9a826"/>
    <path id="Path_69" data-name="Path 69" d="M729.6,464.643a2.55,2.55,0,0,0-1.4-2.006,2.606,2.606,0,0,0-3.452,1.457L712.3,490.283,709.5,593.4h4.484l1.681-102.892,13.7-24.245A2.661,2.661,0,0,0,729.6,464.643Z" transform="translate(-353.516 -272.965)" fill="#3f3d56"/>
    <path id="Path_70" data-name="Path 70" d="M771.009,727.558a81.133,81.133,0,0,1-11.814,8.58,1.969,1.969,0,0,1-.219.258,3.648,3.648,0,0,1-1.541.773h0a92.254,92.254,0,0,1-45.441,11.669H403.851C368.543,745.207,347,740.392,347,735.107c0-4.1,12.935-7.913,35.207-11.108q3.464-.5,7.224-.975,2.315-.291,4.736-.56l2.741-.319q3.049-.348,6.26-.678h.174l2.242-.224q2.842-.294,5.8-.561l1.435-.129,3.66-.325q3.564-.32,7.286-.611,3.088-.241,6.277-.482c21.555-1.6,46.4-2.8,73.446-3.581l7.723-.263,2.6-.056,5.492-.123,2.2-.045,2.315-.045,1.648-.028,7.734-.123,3.974-.056h.813q14.1-.168,28.717-.174c19.268,0,37.953.23,55.758.667h0q15.334.37,29.732.942h.09c27.675,1.087,52.446,2.69,72.948,4.68l.375.039c5.263.51,10.245,1.054,14.919,1.614,4.4.527,8.53,1.082,12.363,1.648,1.328.2,2.617.4,3.873.594l.32.056C762.4,725.737,767.058,726.611,771.009,727.558Z" transform="translate(-194.177 -383.827)" fill="#f9a826" opacity="0.1"/>
    <path id="Path_71" data-name="Path 71" d="M926.953,543.15a1.953,1.953,0,0,1-.219.258,3.645,3.645,0,0,1-1.541.773h0a15.536,15.536,0,0,1-3.475.56h-.353a15.1,15.1,0,0,1-2.012-.067,9.35,9.35,0,0,0-1.474-.1h-.067a10.478,10.478,0,0,0-2.1.521,18.636,18.636,0,0,1-4.652.661H910.5c-1.76,0-3.542-.062-5.307-.051h-.857c-3.026.078-6.036.56-9.063.611H894.3a14.258,14.258,0,0,1-8.356-2.5,3.3,3.3,0,0,1-1.121-1.255,3.524,3.524,0,0,1-.2-1.681,3.957,3.957,0,0,1,1.014-2.8,4.411,4.411,0,0,1,1.614-.779c1.026-.331,2.057-.65,3.082-.97s2.2-.661,3.3-.986l.213-.067.617-.185.4-.135a6.513,6.513,0,0,0,1.379-.628,4.569,4.569,0,0,0,1.418-1.418c.062-.1.129-.207.185-.314s0-.174-.039-.263c-.1-.7-.168-1.418-.291-2.1a8.406,8.406,0,0,1-4.142-2.343,13.309,13.309,0,0,1-2.415-3.268c-1.4-2.623-2.113-5.554-3.155-8.339a74.3,74.3,0,0,0-6.266-12.027c-2.141-3.576-4.293-7.162-6.725-10.542-1.62-2.242-3.363-4.377-4.966-6.625a58.842,58.842,0,0,1-9.572-20.9,27.668,27.668,0,0,0-1.161-4.248c-.964-2.354-2.729-4.271-4.1-6.423a21.262,21.262,0,0,1-2.965-7.605c-.28-1.536-.751-3.194-2.281-3.363h0l-.162.319c-3.172,6.165-6.428,12.442-11.209,17.475a18.48,18.48,0,0,0-2.09,2.4,23.066,23.066,0,0,0-1.345,2.589,16.812,16.812,0,0,1-2.976,4.355,8.5,8.5,0,0,1-1.177.992,6.33,6.33,0,0,1-1.844.925h0a5.444,5.444,0,0,1-.8.179c0,.067.028.129.034.2s.034.146.045.219a26.339,26.339,0,0,1-1.026,13.411c-.039.135-.084.263-.134.4q-.347.941-.757,1.849c-.684,1.485-1.5,2.909-2.135,4.416-.106.258-.213.516-.308.773-2.242,6-1.681,12.705-1.973,19.156a21.091,21.091,0,0,1-.5,4.192c-.381,1.552-.992,3.155-1.328,4.758a8.05,8.05,0,0,0-.073,3.671l-.135.05c-.6.224-1.21.426-1.821.616v.084c.219,1.255.432,2.511.65,3.761a5.5,5.5,0,0,0,1.154,3,4.1,4.1,0,0,1,.56.56c.443.695.051,1.614.135,2.438.123,1.166,1.2,2.158,1.031,3.318a2.186,2.186,0,0,1-1.311,1.558,3.879,3.879,0,0,1-.863.275l-.185.039c-.336.062-.672.1-1.009.129-4.175.415-8.407.829-12.543.123-.818-.14-1.631-.325-2.46-.392a18.361,18.361,0,0,0-3.139.129A154.116,154.116,0,0,1,777,542.97c-2-.112-4.3-.437-5.358-2.146-.88-1.418-.56-3.251-.118-4.87a5.246,5.246,0,0,1,.678-1.681,1.065,1.065,0,0,1,.123-.157c1.031-1.283,2.97-1.362,4.64-1.311l5.459.163a5.12,5.12,0,0,0,1.6-.123,16.866,16.866,0,0,0,2.387-1.362c1.043-.5,2.354-.56,3.1-1.412l.1-.123a6.655,6.655,0,0,0,.37-.56c0-.039.051-.079.079-.118h0a1.076,1.076,0,0,1,.067-.1c.689-.908,1.894-1.211,2.875-1.788a2.956,2.956,0,0,0,.42-.3l.112-.1a11.5,11.5,0,0,1-2.724-2.741,2.756,2.756,0,0,1-.622-1.087,1.576,1.576,0,0,1,.068-.914,1.345,1.345,0,0,1,.09-.207l.028-.056c.381-.751,1.166-1.429,1.6-2.2a.351.351,0,0,0,.039-.079c.594-1.121.712-2.858-.168-3.761.448-7.381,2.477-14.572,2.926-21.975.179-2.931.106-5.873.241-8.816s.448-5.795.779-8.681c.74-6.6,2.533-13.058,2.281-19.683a12,12,0,0,1,.078-1.849,1.075,1.075,0,0,1,0-.134,11.365,11.365,0,0,1,1.25-3.878,29.8,29.8,0,0,1,2.752-3.878c3.447-4.483,7.588-8.967,8.816-14.482a31.289,31.289,0,0,1,3.43-8.014,14.112,14.112,0,0,1,3-4.209,13.191,13.191,0,0,0,1.978-1.681c.919-1.188.953-2.83,1.5-4.243.28-.734.712-1.407.925-2.163a1.129,1.129,0,0,1,.056-.23,15.2,15.2,0,0,0,.2-2.309,5.169,5.169,0,0,1,.061-.661h0a23.414,23.414,0,0,1,1.911-6.406c.118-.258.23-.521.342-.779a24.017,24.017,0,0,1-6.725-5.834,13.774,13.774,0,0,1-1.631-2.46c-1.154-2.292-1.418-4.9-1.961-7.415-1.3-5.986-4.276-11.624-4.691-17.744-.123-1.866,0-3.794-.65-5.56a11.128,11.128,0,0,0-.633-1.39c-.1-.191-.2-.381-.3-.561l-.112-.213-.286-.56-.46.359A335.727,335.727,0,0,1,770.881,385.1l-1.076.639a3.924,3.924,0,0,0-1.424,1.166c-.045.073-.084.146-.123.219h0c-.258.532-.325,1.121-.561,1.681a4.59,4.59,0,0,1-3.122,2.483,9.64,9.64,0,0,1-7.09-.914,8.552,8.552,0,0,1-.807-.448,10.927,10.927,0,0,1-2.062.88,24.428,24.428,0,0,1-6.91.616,20.756,20.756,0,0,0-6.888.762c-1.468.5-2.892,1.323-4.416,1.4a4.136,4.136,0,0,1-.527,0,7.628,7.628,0,0,1-2.5-.734l-.46-.207a7.557,7.557,0,0,1-.7-.376,3.833,3.833,0,0,1-.678-.533,2.477,2.477,0,0,1-.628-1.07,1.776,1.776,0,0,1,0-.891.559.559,0,0,1,.191-.336.6.6,0,0,1,.331-.084,10.079,10.079,0,0,1,1.917.163,6.918,6.918,0,0,0,1.121.062h.2a2.432,2.432,0,0,0,1.681-.953,1.047,1.047,0,0,0,.146-.269h0a1.238,1.238,0,0,0,.1-.5.946.946,0,0,0,0-.129c-.235-.106-.471-.213-.695-.342-.118-.062-.23-.129-.342-.2l-.067-.045a3.806,3.806,0,0,1-.56-.465,1.96,1.96,0,0,1-.286-.359,2.142,2.142,0,0,1-.331-.673h0a3.013,3.013,0,0,0-1.4.039c-.611.168-1.227.527-1.833.65a1.626,1.626,0,0,1-.925-.039c-.874-.314-1.182-1.379-1.367-2.292-.034-.174-.073-.353-.1-.532h0a2.837,2.837,0,0,1,0-1.042,3.839,3.839,0,0,1,1.474-1.922l1.838-1.541.135-.112a3.212,3.212,0,0,0-.084-.454,2.864,2.864,0,0,1,0-1.048,3.823,3.823,0,0,1,1.474-1.917l4.069-3.424a4.782,4.782,0,0,1,2.584-1.379c1.474-.1,2.651,1.121,3.755,2.1a8.523,8.523,0,0,0,4.932,2.365,7.25,7.25,0,0,0,2.606-.359l.476-.157c-.1-.207-.2-.415-.3-.622-.163-.342-.325-.689-.482-1.037a11.13,11.13,0,0,0,6.367-3.032c1.81-1.569,3.363-3.424,5.19-4.966,1.973-1.681,4.237-2.931,6.238-4.551,4.652-3.772,7.74-9.315,12.716-12.638,1.726-1.16,3.721-2.085,4.9-3.811.364-.56.639-1.121,1.015-1.681,1.194-1.681,3.239-2.455,4.926-3.62a24.5,24.5,0,0,0,4.528-4.517c.975-1.171,1.956-2.343,2.886-3.548.858-1.6,1.581-3.267,2.477-4.842a23.778,23.778,0,0,1,2.651-3.744c.23-.448.465-.9.717-1.334s.437-.734.672-1.121c.162-.252.331-.493.5-.74-.51-.9-1-1.681-1.228-2.023l-.112-.151a16.838,16.838,0,0,0-1.581-1.48,14.936,14.936,0,0,1-1.737-.37,16.348,16.348,0,0,1-12.027-15.788.146.146,0,0,1,0-.051,16.253,16.253,0,0,1,1.782-7.387c.235-.46.488-.9.762-1.334a5.044,5.044,0,0,1-.745-.3,2.955,2.955,0,0,1-1.042-.857,2.483,2.483,0,0,1-.431-1.087,5.543,5.543,0,0,1,.4-2.712,12.937,12.937,0,0,1,.521-1.211.452.452,0,0,0,.039-.073,15.575,15.575,0,0,1,13.182-8.362c5.756-.23,11.36,2.472,15.9,6.339a21.3,21.3,0,0,1,3.609,3.794,22.955,22.955,0,0,1,3.755,11.685,17.932,17.932,0,0,1-.067,3.878,9.233,9.233,0,0,1-.28,1.356c-.073.263-.168.527-.269.79a5.138,5.138,0,0,1-.252.56v.028c-.084.179-.18.348-.275.516l-.05.073-.073.118c.045.107.1.219.146.325s.1.207.151.308h.067c1.121.09,2.158.247,3.3.336a7.59,7.59,0,0,1,1.592.247,10.64,10.64,0,0,1,2.909,1.816c2.331,1.648,5.2,2.415,7.493,4.119,3.363,2.511,5.044,6.658,7.084,10.374,2.69,4.977,7.073,9.214,9.006,14.538q1.311,3.626,2.634,7.241a112.805,112.805,0,0,0,5.778,13.927c3.25,6.2,7.65,11.769,10.256,18.282a2.914,2.914,0,0,0,1.367,1.513,118.975,118.975,0,0,1,9.444,15.8,29.629,29.629,0,0,1,3.222,9.152,22.084,22.084,0,0,1-.7,8.552,41.566,41.566,0,0,1-1.642,4.853,7.992,7.992,0,0,0-.561,1.732v.185a15.812,15.812,0,0,0,.409,3.217,5.951,5.951,0,0,1-.286,2.567c-.045.129-.1.258-.146.387a13.832,13.832,0,0,0-.88,2.04,2.013,2.013,0,0,0-.045.258,10.391,10.391,0,0,0,.56,3.66c.986,4.394.807,8.967.56,13.451-.129,2.242,1.681,4.041,3.195,5.694a61.363,61.363,0,0,1,7.107,10.335,33.138,33.138,0,0,1,2.9,5.795,48.477,48.477,0,0,1,1.563,7.146c1.429,7.4,6.1,13.933,7.364,21.347a19.055,19.055,0,0,0,4.332,9.18,19.477,19.477,0,0,1,1.866,2.242,9.009,9.009,0,0,1,.925,2.018,14.965,14.965,0,0,1,.768,5.117,7.692,7.692,0,0,0,.14,2.488c.527,1.721,2.41,2.668,3.189,4.287s.241,3.693.56,5.532a5.97,5.97,0,0,0,2.242,3.732c-.448.392-.919.751-1.4,1.121a5.6,5.6,0,0,1,1.16,1.222,5.5,5.5,0,0,1,.561.992c.74,1.721.762,3.766,1.368,5.6a4.034,4.034,0,0,1,.4,2.343,2.569,2.569,0,0,0-.191.7c0,.5.527.835.729,1.295a1.39,1.39,0,0,1-.292,1.351Z" transform="translate(-361.935 -190.838)" fill="url(#linear-gradient)"/>
    <path id="Path_72" data-name="Path 72" d="M865.88,344.042c3.43-.925,6.484-2.858,9.477-4.769l10.43-6.641a9.071,9.071,0,0,1-6.725-4.685,23.654,23.654,0,0,1-2.544-8.076c-4.483,1.749-8.367,4.713-11.988,7.846-1.435,1.239-4.484,3.11-4.926,5.044s2.382,3.5,3.475,4.8C863.453,337.989,866.99,343.734,865.88,344.042Z" transform="translate(-419.474 -210.303)" fill="#fbbebe"/>
    <path id="Path_73" data-name="Path 73" d="M865.88,344.042c3.43-.925,6.484-2.858,9.477-4.769l10.43-6.641a9.071,9.071,0,0,1-6.725-4.685,23.654,23.654,0,0,1-2.544-8.076c-4.483,1.749-8.367,4.713-11.988,7.846-1.435,1.239-4.484,3.11-4.926,5.044s2.382,3.5,3.475,4.8C863.453,337.989,866.99,343.734,865.88,344.042Z" transform="translate(-419.474 -210.303)" opacity="0.1"/>
    <path id="Path_74" data-name="Path 74" d="M751.358,458.783c-1.838.942-3.794,1.906-5.851,1.771a8.5,8.5,0,0,1-4.926-2.348c-1.121-.975-2.275-2.191-3.749-2.09a4.8,4.8,0,0,0-2.578,1.367l-4.063,3.4a3.822,3.822,0,0,0-1.474,1.905,3.779,3.779,0,0,0,.1,1.581c.185.908.493,1.967,1.368,2.275s1.827-.353,2.752-.605a3.24,3.24,0,0,1,3.178.936,1.89,1.89,0,0,1,.56,1.222c0,1.014-1.121,1.681-2.152,1.732s-2.018-.286-3.038-.224a.465.465,0,0,0-.521.415,2.141,2.141,0,0,0,.656,1.95,5.691,5.691,0,0,0,1.827,1.121,7.452,7.452,0,0,0,2.5.729c1.721.112,3.3-.841,4.932-1.4a21.324,21.324,0,0,1,6.882-.757,24.289,24.289,0,0,0,6.9-.611,7.825,7.825,0,0,0,5.207-4.237,1.021,1.021,0,0,0,.1-.65,1.076,1.076,0,0,0-.471-.56c-3.127-2.315-4.394-5.128-7.913-6.793Z" transform="translate(-361.944 -270.188)" fill="#fbbebe"/>
    <path id="Path_75" data-name="Path 75" d="M751.358,458.783c-1.838.942-3.794,1.906-5.851,1.771a8.5,8.5,0,0,1-4.926-2.348c-1.121-.975-2.275-2.191-3.749-2.09a4.8,4.8,0,0,0-2.578,1.367l-4.063,3.4a3.822,3.822,0,0,0-1.474,1.905,3.779,3.779,0,0,0,.1,1.581c.185.908.493,1.967,1.368,2.275s1.827-.353,2.752-.605a3.24,3.24,0,0,1,3.178.936,1.89,1.89,0,0,1,.56,1.222c0,1.014-1.121,1.681-2.152,1.732s-2.018-.286-3.038-.224a.465.465,0,0,0-.521.415,2.141,2.141,0,0,0,.656,1.95,5.691,5.691,0,0,0,1.827,1.121,7.452,7.452,0,0,0,2.5.729c1.721.112,3.3-.841,4.932-1.4a21.324,21.324,0,0,1,6.882-.757,24.289,24.289,0,0,0,6.9-.611,7.825,7.825,0,0,0,5.207-4.237,1.021,1.021,0,0,0,.1-.65,1.076,1.076,0,0,0-.471-.56c-3.127-2.315-4.394-5.128-7.913-6.793Z" transform="translate(-361.944 -270.188)" opacity="0.1"/>
    <path id="Path_76" data-name="Path 76" d="M832,353.383a6.759,6.759,0,0,0-5.93-.689,12.8,12.8,0,0,0-5.105,3.4,23.479,23.479,0,0,0-3.6,4.758c-.953,1.681-1.681,3.441-2.634,5.117a54.429,54.429,0,0,1-6.087,8.267,23.466,23.466,0,0,1-4.523,4.484c-1.76,1.2-3.727,1.934-4.921,3.6-.375.527-.644,1.121-1.014,1.653-1.171,1.715-3.161,2.634-4.893,3.783-4.965,3.307-8.053,8.81-12.694,12.56-2,1.614-4.259,2.881-6.226,4.528-1.833,1.53-3.363,3.363-5.19,4.932a11.1,11.1,0,0,1-6.355,3.01,32.738,32.738,0,0,0,6.221,9.791c2.729,2.763,6.821,4.528,10.548,3.447a4.582,4.582,0,0,0,3.122-2.466,10.537,10.537,0,0,1,.661-1.911,3.922,3.922,0,0,1,1.418-1.16,335.037,335.037,0,0,0,42.655-29.552c3.6-2.937,7.179-5.565,10.878-8.407a23.778,23.778,0,0,0,3.66-3.206,12.184,12.184,0,0,0,1.479-13.423,31.828,31.828,0,0,0-3.4-4.6A40.435,40.435,0,0,0,832,353.383Z" transform="translate(-376.953 -224.559)" fill="#f9a826"/>
    <path id="Path_77" data-name="Path 77" d="M832,353.383a6.759,6.759,0,0,0-5.93-.689,12.8,12.8,0,0,0-5.105,3.4,23.479,23.479,0,0,0-3.6,4.758c-.953,1.681-1.681,3.441-2.634,5.117a54.429,54.429,0,0,1-6.087,8.267,23.466,23.466,0,0,1-4.523,4.484c-1.76,1.2-3.727,1.934-4.921,3.6-.375.527-.644,1.121-1.014,1.653-1.171,1.715-3.161,2.634-4.893,3.783-4.965,3.307-8.053,8.81-12.694,12.56-2,1.614-4.259,2.881-6.226,4.528-1.833,1.53-3.363,3.363-5.19,4.932a11.1,11.1,0,0,1-6.355,3.01,32.738,32.738,0,0,0,6.221,9.791c2.729,2.763,6.821,4.528,10.548,3.447a4.582,4.582,0,0,0,3.122-2.466,10.537,10.537,0,0,1,.661-1.911,3.922,3.922,0,0,1,1.418-1.16,335.037,335.037,0,0,0,42.655-29.552c3.6-2.937,7.179-5.565,10.878-8.407a23.778,23.778,0,0,0,3.66-3.206,12.184,12.184,0,0,0,1.479-13.423,31.828,31.828,0,0,0-3.4-4.6A40.435,40.435,0,0,0,832,353.383Z" transform="translate(-376.953 -224.559)" opacity="0.1"/>
    <path id="Path_78" data-name="Path 78" d="M826.1,722.379c-.981.56-2.186.874-2.875,1.782-.224.291-.375.633-.616.914-.746.874-2.068.914-3.1,1.412a15.075,15.075,0,0,1-2.382,1.351,5.172,5.172,0,0,1-1.609.123l-5.447-.163c-1.726-.05-3.749.039-4.753,1.446a5.135,5.135,0,0,0-.684,1.681c-.42,1.608-.762,3.43.118,4.842,1.054,1.681,3.363,2.023,5.352,2.135a154.509,154.509,0,0,0,23.057-.448,18.237,18.237,0,0,1,3.127-.129c.829.067,1.642.252,2.46.392,4.131.7,8.356.291,12.526-.123a6.547,6.547,0,0,0,2.057-.437,2.18,2.18,0,0,0,1.306-1.552c.174-1.155-.908-2.135-1.026-3.3-.084-.818.308-1.732-.14-2.427a4,4,0,0,0-.56-.56,5.516,5.516,0,0,1-1.155-2.982l-.981-5.756a1.771,1.771,0,0,0-.471-1.087,1.618,1.618,0,0,0-.695-.286c-4.271-.964-8.648-.084-12.89.454a34.648,34.648,0,0,1-6.6.331c-.953-.062-1.323-.174-2.034.448S826.993,721.858,826.1,722.379Z" transform="translate(-395.142 -385.647)" fill="#3f3d56"/>
    <path id="Path_79" data-name="Path 79" d="M1018.169,732.414a9.447,9.447,0,0,1-2.388.936q-3.3.964-6.591,2.012a4.371,4.371,0,0,0-1.608.773,3.911,3.911,0,0,0-1.014,2.8,3.513,3.513,0,0,0,.2,1.681,3.361,3.361,0,0,0,1.121,1.244c2.511,1.9,5.789,2.489,8.939,2.489s6.277-.532,9.426-.616c3.806-.1,7.712.437,11.371-.628a9.672,9.672,0,0,1,2.163-.527,9.186,9.186,0,0,1,1.468.1,15.571,15.571,0,0,0,5.84-.532,3.591,3.591,0,0,0,1.547-.768,1.446,1.446,0,0,0,.415-1.58c-.2-.454-.717-.785-.723-1.284a2.413,2.413,0,0,1,.185-.695,3.935,3.935,0,0,0-.4-2.326c-.723-2.163-.6-4.651-1.9-6.529s-3.671-2.651-5.93-2.948a16.446,16.446,0,0,0-5.52.157c-2.046.437-3.957,1.351-5.963,1.934a19.5,19.5,0,0,1-7.174.678c-1.6-.135-1.054.118-1.6,1.463A4.768,4.768,0,0,1,1018.169,732.414Z" transform="translate(-484.082 -388.755)" fill="#3f3d56"/>
    <circle id="Ellipse_17" data-name="Ellipse 17" cx="16.253" cy="16.253" r="16.253" transform="translate(428.281 93.46)" fill="#fbbebe"/>
    <path id="Path_80" data-name="Path 80" d="M972.462,551.325c-5.044,4.332-11.853,6.227-18.495,6.294a15.19,15.19,0,0,1-8.1-1.726c-.168-.919-.236-1.911-.4-2.83-2.9-.605-5.145-2.965-6.546-5.576s-2.113-5.515-3.155-8.283a73.978,73.978,0,0,0-6.255-11.954c-2.141-3.553-4.287-7.118-6.725-10.475-1.614-2.242-3.363-4.349-4.96-6.585a58.287,58.287,0,0,1-9.555-20.77,27.145,27.145,0,0,0-1.16-4.22c-.964-2.343-2.729-4.248-4.091-6.383a21.087,21.087,0,0,1-2.965-7.56c-.275-1.524-.745-3.172-2.275-3.329h0c-3.217,6.249-6.5,12.6-11.36,17.682a18.306,18.306,0,0,0-2.09,2.387,22.956,22.956,0,0,0-1.345,2.578,16.611,16.611,0,0,1-2.97,4.327,6.928,6.928,0,0,1-3.822,2.085,26.139,26.139,0,0,1-1.838,15.973c-.678,1.48-1.491,2.892-2.13,4.388-2.612,6.165-2.006,13.12-2.281,19.806a20.817,20.817,0,0,1-.493,4.164c-.678,2.735-2.079,5.644-1.4,8.379-7.028,2.684-14.835,2.516-22.278,1.384a10.732,10.732,0,0,1-4.153-1.261,11.432,11.432,0,0,1-2.724-2.724,2.729,2.729,0,0,1-.622-1.082c-.292-1.278,1.121-2.242,1.777-3.363a3.4,3.4,0,0,0-.129-3.817c.448-7.336,2.477-14.5,2.926-21.857.179-2.914.106-5.84.241-8.76s.448-5.761.773-8.631c.74-6.552,2.533-12.974,2.281-19.56a11.376,11.376,0,0,1,1.351-5.823,29.385,29.385,0,0,1,2.746-3.856c3.441-4.444,7.577-8.9,8.8-14.387A31.158,31.158,0,0,1,862.464,448a14.1,14.1,0,0,1,2.993-4.186,13.109,13.109,0,0,0,1.979-1.681c.919-1.183.953-2.8,1.5-4.215.28-.729.712-1.4.919-2.152a12.273,12.273,0,0,0,.252-2.522,23.6,23.6,0,0,1,2.32-7.818,23.946,23.946,0,0,1-6.725-5.795,14.178,14.178,0,0,1-1.625-2.449c-1.155-2.275-1.418-4.87-1.962-7.364-1.295-5.952-4.271-11.551-4.685-17.632-.123-1.855,0-3.772-.645-5.526a17.362,17.362,0,0,0-1.042-2.158,8.831,8.831,0,0,1-.885-2.175c-.359-1.653.134-3.363,0-5.044a36.412,36.412,0,0,0-1.082-4.327,20.538,20.538,0,0,1-.162-5.717,46.824,46.824,0,0,0,.437-6.77,26.155,26.155,0,0,1,7.033-20.142l.129-.129c1.07-1.121,2.242-2.113,3.206-3.3,1.312-1.592,2.242-3.464,3.626-5.01.605-.689,1.289-1.306,1.889-2a16.606,16.606,0,0,1,1.822-2.04,2.8,2.8,0,0,1,2.533-.678,7.023,7.023,0,0,0,.773,2.388c1.166.09,2.2.252,3.363.342a7.6,7.6,0,0,1,1.592.247,10.36,10.36,0,0,1,2.9,1.8c2.331,1.642,5.2,2.4,7.488,4.1,3.363,2.494,5.044,6.613,7.073,10.307,2.685,4.949,7.062,9.158,8.967,14.448l2.628,7.2a112.382,112.382,0,0,0,5.773,13.837c3.245,6.165,7.639,11.719,10.245,18.17a2.925,2.925,0,0,0,1.362,1.5,117.191,117.191,0,0,1,9.432,15.692,29.207,29.207,0,0,1,3.217,9.1c.611,4.523-.622,9.1-2.337,13.322a6.945,6.945,0,0,0-.56,1.906,15.586,15.586,0,0,0,.409,3.195,5.914,5.914,0,0,1-.432,2.937,13.46,13.46,0,0,0-.88,2.029c-.3,1.289.235,2.6.527,3.89.986,4.366.807,8.889.56,13.361-.129,2.242,1.681,4.018,3.189,5.66a60.551,60.551,0,0,1,7.1,10.267,33.166,33.166,0,0,1,2.892,5.761,47.756,47.756,0,0,1,1.564,7.1c1.423,7.347,6.086,13.843,7.353,21.213a18.848,18.848,0,0,0,4.327,9.118,19.851,19.851,0,0,1,1.866,2.242,9.026,9.026,0,0,1,.919,2.006,14.775,14.775,0,0,1,.768,5.083,7.589,7.589,0,0,0,.14,2.471c.527,1.709,2.41,2.651,3.183,4.259s.241,3.671.56,5.5A5.918,5.918,0,0,0,972.462,551.325Z" transform="translate(-410.1 -213.478)" fill="#f9a826"/>
    <path id="Path_81" data-name="Path 81" d="M757.358,449.783c-1.838.942-3.794,1.905-5.851,1.771a8.5,8.5,0,0,1-4.926-2.348c-1.121-.975-2.275-2.191-3.749-2.091a4.8,4.8,0,0,0-2.578,1.367l-4.063,3.4a3.821,3.821,0,0,0-1.474,1.905,3.777,3.777,0,0,0,.1,1.58c.185.908.493,1.967,1.367,2.275s1.827-.353,2.752-.605a3.239,3.239,0,0,1,3.178.936,1.888,1.888,0,0,1,.561,1.222c0,1.014-1.121,1.681-2.152,1.732s-2.018-.286-3.038-.224a.465.465,0,0,0-.521.415,2.141,2.141,0,0,0,.656,1.95,5.689,5.689,0,0,0,1.827,1.121,7.451,7.451,0,0,0,2.5.729c1.721.112,3.3-.841,4.932-1.4a21.319,21.319,0,0,1,6.882-.757,24.292,24.292,0,0,0,6.9-.611,7.825,7.825,0,0,0,5.206-4.237,1.019,1.019,0,0,0,.1-.65,1.075,1.075,0,0,0-.471-.56c-3.127-2.315-4.394-5.128-7.913-6.793Z" transform="translate(-364.581 -266.232)" fill="#fbbebe"/>
    <path id="Path_82" data-name="Path 82" d="M847.064,291.917a13.9,13.9,0,0,0-2.713,1.177,4.674,4.674,0,0,1-3.833-.2,2.96,2.96,0,0,1-1.048-.852c-.751-1.042-.488-2.556-.028-3.777a15.4,15.4,0,0,1,13.731-9.584c5.75-.23,11.343,2.455,15.877,6.294a21.689,21.689,0,0,1,3.6,3.772,22.781,22.781,0,0,1,3.749,11.612,15.131,15.131,0,0,1-.342,5.2,6.322,6.322,0,0,1-2.948,3.974,5.823,5.823,0,0,1-5.145-.224,21.711,21.711,0,0,1-4.4-3.206,6.534,6.534,0,0,0-2.191-1.4,2.242,2.242,0,0,0-2.371.56c-.751.9-.56,2.382-1.244,3.363s-2.107,1.121-3.307,1.121-2.416-.1-3.133-1.054a3.941,3.941,0,0,1-.314-3.211,10.529,10.529,0,0,0,.56-3.279c-.23-2.242-2.191-3.62-2.8-5.683-.4-1.351.476-1.922.387-3.144A1.763,1.763,0,0,0,847.064,291.917Z" transform="translate(-410.438 -192.191)" fill="#3f3d56"/>
    <path id="Path_83" data-name="Path 83" d="M927.384,548.24v.14h0c-3.217,6.249-6.5,12.6-11.36,17.682a18.334,18.334,0,0,0-2.09,2.388,22.979,22.979,0,0,0-1.345,2.578,16.613,16.613,0,0,1-2.97,4.327l-4.058,2.029,12.89-67.253Z" transform="translate(-439.695 -293.933)" opacity="0.1"/>
    <path id="Path_84" data-name="Path 84" d="M890.988,375.306a23.781,23.781,0,0,1-3.66,3.206c-3.7,2.8-7.286,5.448-10.878,8.407q-4.343,3.536-8.81,6.927a8.824,8.824,0,0,1-.886-2.174c-.359-1.653.135-3.363,0-5.044a36.461,36.461,0,0,0-1.082-4.327,20.547,20.547,0,0,1-.163-5.717,46.843,46.843,0,0,0,.437-6.77,26.155,26.155,0,0,1,7.067-20.182l.129-.129a9.849,9.849,0,0,1,1.906-.852,6.759,6.759,0,0,1,5.929.717,40.432,40.432,0,0,1,8.07,7.914,31.823,31.823,0,0,1,3.4,4.6,12.184,12.184,0,0,1-1.457,13.423Z" transform="translate(-422.036 -222.787)" opacity="0.1"/>
    <path id="Path_85" data-name="Path 85" d="M838,344.383a6.759,6.759,0,0,0-5.93-.689,12.8,12.8,0,0,0-5.106,3.4,23.492,23.492,0,0,0-3.6,4.758c-.953,1.681-1.681,3.441-2.634,5.117a54.42,54.42,0,0,1-6.086,8.267,23.469,23.469,0,0,1-4.523,4.484c-1.76,1.2-3.727,1.934-4.921,3.6-.376.527-.645,1.121-1.015,1.653-1.171,1.715-3.161,2.634-4.893,3.783-4.966,3.307-8.053,8.81-12.694,12.56-2,1.614-4.259,2.881-6.226,4.528-1.833,1.53-3.363,3.363-5.19,4.932a11.1,11.1,0,0,1-6.356,3.01,32.738,32.738,0,0,0,6.221,9.791c2.729,2.763,6.821,4.528,10.548,3.447a4.582,4.582,0,0,0,3.122-2.466,10.558,10.558,0,0,1,.661-1.911,3.924,3.924,0,0,1,1.418-1.16,335.028,335.028,0,0,0,42.655-29.552c3.6-2.937,7.179-5.565,10.878-8.407a23.775,23.775,0,0,0,3.66-3.206,12.184,12.184,0,0,0,1.48-13.423,31.836,31.836,0,0,0-3.4-4.6A40.432,40.432,0,0,0,838,344.383Z" transform="translate(-379.591 -220.603)" fill="#f9a826"/>
    <g id="Group_17" data-name="Group 17" transform="translate(428.554 93.701)" opacity="0.1">
      <path id="Path_86" data-name="Path 86" d="M855.572,313.16c-1.121,0-2.415-.1-3.133-1.054a3.964,3.964,0,0,1-.314-3.211,10.513,10.513,0,0,0,.56-3.279c-.23-2.242-2.191-3.62-2.8-5.683-.4-1.351.476-1.922.387-3.144a1.774,1.774,0,0,0-2.1-1.446,13.9,13.9,0,0,0-2.713,1.177,4.674,4.674,0,0,1-3.833-.2,2.959,2.959,0,0,1-1.048-.852c-.751-1.042-.488-2.556-.028-3.777,0-.045.039-.084.056-.129a13.542,13.542,0,0,0-1.177,2.371c-.46,1.222-.723,2.735.028,3.777a2.957,2.957,0,0,0,1.048.852,4.673,4.673,0,0,0,3.833.2,13.9,13.9,0,0,1,2.713-1.177,1.774,1.774,0,0,1,2.1,1.446c.09,1.222-.785,1.793-.387,3.144.6,2.062,2.561,3.464,2.8,5.683a9.865,9.865,0,0,1-.56,3.279,3.9,3.9,0,0,0,.314,3.211c.717.953,2,1.042,3.133,1.054s2.589-.067,3.307-1.121a4.718,4.718,0,0,0,.6-1.721A4.745,4.745,0,0,1,855.572,313.16Z" transform="translate(-838.987 -291.56)"/>
      <path id="Path_87" data-name="Path 87" d="M890.257,325.853a5.822,5.822,0,0,1-5.145-.224,21.7,21.7,0,0,1-4.4-3.206,6.534,6.534,0,0,0-2.191-1.4,2.242,2.242,0,0,0-2.371.56,4.246,4.246,0,0,0-.7,1.883,2.371,2.371,0,0,1,1.95-.207,6.537,6.537,0,0,1,2.191,1.4,22.111,22.111,0,0,0,4.4,3.206,5.837,5.837,0,0,0,5.145.224,6.237,6.237,0,0,0,2.875-3.772A5.184,5.184,0,0,1,890.257,325.853Z" transform="translate(-855.015 -304.456)"/>
    </g>
    <circle id="Ellipse_18" data-name="Ellipse 18" cx="16.813" cy="16.813" r="16.813" transform="translate(307.505 322.401)" fill="#3f3d56"/>
    <circle id="Ellipse_19" data-name="Ellipse 19" cx="16.813" cy="16.813" r="16.813" transform="translate(307.505 322.401)" opacity="0.1"/>
    <circle id="Ellipse_20" data-name="Ellipse 20" cx="10.648" cy="10.648" r="10.648" transform="translate(313.67 328.566)" fill="#65617d"/>
    <circle id="Ellipse_21" data-name="Ellipse 21" cx="10.648" cy="10.648" r="10.648" transform="translate(313.67 328.566)" opacity="0.1"/>
    <path id="Path_88" data-name="Path 88" d="M630,681.311l11.029,24.94a2.141,2.141,0,0,0,3.884.079l13.109-26.7Z" transform="translate(-318.571 -368.438)" fill="#3f3d56"/>
    <path id="Path_89" data-name="Path 89" d="M630,681.311l11.029,24.94a2.141,2.141,0,0,0,3.884.079l13.109-26.7Z" transform="translate(-318.571 -368.438)" opacity="0.1"/>
    <circle id="Ellipse_22" data-name="Ellipse 22" cx="16.813" cy="16.813" r="16.813" transform="translate(202.702 322.401)" fill="#3f3d56"/>
    <circle id="Ellipse_23" data-name="Ellipse 23" cx="16.813" cy="16.813" r="16.813" transform="translate(202.702 322.401)" opacity="0.1"/>
    <circle id="Ellipse_24" data-name="Ellipse 24" cx="10.648" cy="10.648" r="10.648" transform="translate(208.867 328.566)" fill="#65617d"/>
    <circle id="Ellipse_25" data-name="Ellipse 25" cx="10.648" cy="10.648" r="10.648" transform="translate(208.867 328.566)" opacity="0.1"/>
    <path id="Path_90" data-name="Path 90" d="M443,681.311l11.03,24.94a2.141,2.141,0,0,0,3.884.079l13.109-26.7Z" transform="translate(-236.374 -368.438)" fill="#3f3d56"/>
    <path id="Path_91" data-name="Path 91" d="M443,681.311l11.03,24.94a2.141,2.141,0,0,0,3.884.079l13.109-26.7Z" transform="translate(-236.374 -368.438)" opacity="0.1"/>
    <path id="Path_92" data-name="Path 92" d="M736.8,466.643a2.55,2.55,0,0,0-1.4-2.006,2.606,2.606,0,0,0-3.452,1.457L722.3,490.041l-2.8,107.605h4.484l1.681-107.375,10.9-22A2.662,2.662,0,0,0,736.8,466.643Z" transform="translate(-357.912 -273.844)" fill="#3f3d56"/>
    <path id="Path_93" data-name="Path 93" d="M368.5,554.189l15.132-9.528L547,543.26l4.2,10.929Z" transform="translate(-187.935 -238.793)" fill="#f9a826"/>
    <path id="Path_94" data-name="Path 94" d="M368.5,571.441V561.353l185.664-1.793-.179,6.837H371.863v5.044Z" transform="translate(-187.935 -245.958)" fill="#3f3d56"/>
    <circle id="Ellipse_26" data-name="Ellipse 26" cx="16.813" cy="16.813" r="16.813" transform="translate(187.29 328.286)" fill="#3f3d56"/>
    <circle id="Ellipse_27" data-name="Ellipse 27" cx="10.648" cy="10.648" r="10.648" transform="translate(193.455 334.451)" fill="#65617d"/>
    <path id="Path_95" data-name="Path 95" d="M415.5,691.811l11.029,24.94a2.141,2.141,0,0,0,3.884.078l13.109-26.7Z" transform="translate(-224.287 -373.053)" fill="#3f3d56"/>
    <circle id="Ellipse_28" data-name="Ellipse 28" cx="16.813" cy="16.813" r="16.813" transform="translate(317.874 328.286)" fill="#3f3d56"/>
    <circle id="Ellipse_29" data-name="Ellipse 29" cx="10.648" cy="10.648" r="10.648" transform="translate(324.039 334.451)" fill="#65617d"/>
    <path id="Path_96" data-name="Path 96" d="M648.5,691.811l11.03,24.94a2.141,2.141,0,0,0,3.884.078l13.109-26.7Z" transform="translate(-326.703 -373.053)" fill="#3f3d56"/>
    <rect id="Rectangle_100" data-name="Rectangle 100" width="70.055" height="38.671" transform="translate(201.582 271.401)" fill="#65617d"/>
    <rect id="Rectangle_101" data-name="Rectangle 101" width="21.297" height="4.484" transform="translate(226.241 278.126)" opacity="0.1"/>
    <rect id="Rectangle_102" data-name="Rectangle 102" width="15.973" height="3.363" transform="translate(228.903 278.686)" opacity="0.1"/>
    <rect id="Rectangle_103" data-name="Rectangle 103" width="70.055" height="38.671" transform="translate(272.758 271.401)" fill="#65617d"/>
    <rect id="Rectangle_104" data-name="Rectangle 104" width="21.297" height="4.484" transform="translate(297.417 278.126)" opacity="0.1"/>
    <rect id="Rectangle_105" data-name="Rectangle 105" width="15.973" height="3.363" transform="translate(300.08 278.686)" opacity="0.1"/>
    <rect id="Rectangle_106" data-name="Rectangle 106" width="70.055" height="38.671" transform="translate(201.582 231.609)" fill="#65617d"/>
    <rect id="Rectangle_107" data-name="Rectangle 107" width="21.297" height="4.484" transform="translate(226.241 238.335)" opacity="0.1"/>
    <rect id="Rectangle_108" data-name="Rectangle 108" width="15.973" height="3.363" transform="translate(228.903 238.895)" opacity="0.1"/>
    <rect id="Rectangle_109" data-name="Rectangle 109" width="70.055" height="38.671" transform="translate(272.758 231.609)" fill="#65617d"/>
    <rect id="Rectangle_110" data-name="Rectangle 110" width="21.297" height="4.484" transform="translate(297.417 238.335)" opacity="0.1"/>
    <rect id="Rectangle_111" data-name="Rectangle 111" width="15.973" height="3.363" transform="translate(300.08 238.895)" opacity="0.1"/>
    <rect id="Rectangle_112" data-name="Rectangle 112" width="70.055" height="38.671" transform="translate(201.582 191.257)" fill="#65617d"/>
    <rect id="Rectangle_113" data-name="Rectangle 113" width="21.297" height="4.484" transform="translate(226.241 197.983)" opacity="0.1"/>
    <rect id="Rectangle_114" data-name="Rectangle 114" width="15.973" height="3.363" transform="translate(228.903 198.543)" opacity="0.1"/>
    <rect id="Rectangle_115" data-name="Rectangle 115" width="70.055" height="38.671" transform="translate(272.758 191.257)" fill="#65617d"/>
    <rect id="Rectangle_116" data-name="Rectangle 116" width="21.297" height="4.484" transform="translate(297.417 197.983)" opacity="0.1"/>
    <rect id="Rectangle_117" data-name="Rectangle 117" width="15.973" height="3.363" transform="translate(300.08 198.543)" opacity="0.1"/>
    <rect id="Rectangle_118" data-name="Rectangle 118" width="70.055" height="38.671" transform="translate(272.758 150.905)" fill="#65617d"/>
    <rect id="Rectangle_119" data-name="Rectangle 119" width="21.297" height="4.484" transform="translate(297.417 157.631)" opacity="0.1"/>
    <rect id="Rectangle_120" data-name="Rectangle 120" width="15.973" height="3.363" transform="translate(300.08 158.191)" opacity="0.1"/>
  </g>
</svg>
