<svg xmlns="http://www.w3.org/2000/svg" width="609" height="340.158" viewBox="0 0 609 340.158">
  <g id="draw--junk" transform="translate(-1055 -2573.308)">
    <g id="Page-1" transform="translate(1058.135 2573.308)">
      <g id="_036---Bin-Lorry" data-name="036---Bin-Lorry" transform="translate(0 0)">
        <path id="Shape" d="M63.594,50A17.594,17.594,0,1,0,81.189,67.594,17.594,17.594,0,0,0,63.594,50Zm0,23.459a5.865,5.865,0,1,1,5.865-5.865A5.865,5.865,0,0,1,63.594,73.459Z" transform="translate(223.781 243.24)" fill="#f9a826"/>
        <path id="Shape-2" data-name="Shape" d="M28.594,50A17.594,17.594,0,1,0,46.189,67.594,17.594,17.594,0,0,0,28.594,50Zm0,23.459a5.865,5.865,0,1,1,5.865-5.865A5.865,5.865,0,0,1,28.594,73.459Z" transform="translate(53.513 243.24)" fill="#f9a826"/>
        <path id="Shape-3" data-name="Shape" d="M334.294,228.727H316.7A11.73,11.73,0,0,1,304.97,217V175.944a23.459,23.459,0,0,0-23.459-23.459H240.457a11.73,11.73,0,0,0-11.73,11.73V269.781H217V129.026a17.559,17.559,0,0,0-12.134-16.638,20.38,20.38,0,0,0-21.618-24.357,25.864,25.864,0,0,0-24.861-11.606,29.277,29.277,0,0,0-18.122-11.413,29.377,29.377,0,0,0-28.831-23.958,28.614,28.614,0,0,0-5.231.528,36.185,36.185,0,0,0-13.225-13.43A23.383,23.383,0,0,0,99.7,11.73,11.73,11.73,0,0,0,87.972,0H64.513a11.73,11.73,0,0,0-11.73,11.73,23.354,23.354,0,0,0,6.686,16.345A38.708,38.708,0,0,0,41.054,61.58a40.684,40.684,0,0,0,3.83,17.008,26.257,26.257,0,0,0-13.337,34.55A29.277,29.277,0,0,0,11.73,140.755V271.411a11.689,11.689,0,0,0-5.865,10.1v11.73a11.73,11.73,0,0,0,11.73,11.73H41.523a40.28,40.28,0,0,0,11.911,35.189H316.048A40.279,40.279,0,0,0,327.96,304.97h6.334a17.594,17.594,0,0,0,17.594-17.594V246.322A17.594,17.594,0,0,0,334.294,228.727Zm5.865,17.594v5.865h-11.73a5.865,5.865,0,0,1-5.865-5.865v-5.865h11.73A5.865,5.865,0,0,1,340.158,246.322ZM228.727,293.24H119.143a41.148,41.148,0,0,0-8.363-11.73H228.727ZM64.513,11.73H87.972a11.73,11.73,0,1,1-23.459,0Zm11.73,23.459a22.7,22.7,0,0,1,18.9,10.856A29.417,29.417,0,0,0,84.518,58.765,28.784,28.784,0,0,0,56,74.888a28.913,28.913,0,0,1-3.22-13.307A25.084,25.084,0,0,1,76.242,35.189ZM55.716,87.972a18.681,18.681,0,0,1,2.762.287,5.865,5.865,0,0,0,6.569-4.4A17.594,17.594,0,0,1,82.107,70.378a17.266,17.266,0,0,1,4.774.768,5.865,5.865,0,0,0,7.354-4.434,17.594,17.594,0,0,1,34.79,3.665,5.865,5.865,0,0,0,5.865,5.865,17.594,17.594,0,0,1,15.518,9.483,5.865,5.865,0,0,0,6.821,2.891,14.374,14.374,0,0,1,4.053-.645,14.6,14.6,0,0,1,13.489,8.956,5.865,5.865,0,0,0,7.4,3.249,8.7,8.7,0,0,1,10.838,11.255H44.068a14.292,14.292,0,0,1-3.015-8.8A14.662,14.662,0,0,1,55.716,87.972ZM41.054,123.161H199.4a5.865,5.865,0,0,1,5.865,5.865V269.781H23.459V140.755A17.594,17.594,0,0,1,41.054,123.161ZM17.594,293.24V281.51h35.84a41.148,41.148,0,0,0-8.363,11.73Zm35.189,17.594a29.324,29.324,0,1,1,29.324,29.324A29.324,29.324,0,0,1,52.783,310.834Zm58,29.324a40.279,40.279,0,0,0,11.911-35.189h124.1A40.28,40.28,0,0,0,258.7,340.158Zm176.595,0A29.324,29.324,0,1,1,316.7,310.834,29.324,29.324,0,0,1,287.375,340.158Zm46.918-46.918h-9.882a40.966,40.966,0,0,0-74.072,0h-9.882V240.457h35.189a5.865,5.865,0,0,0,0-11.73H240.457V164.214H281.51a11.73,11.73,0,0,1,11.73,11.73V217a23.459,23.459,0,0,0,17.594,22.626v6.7a17.594,17.594,0,0,0,17.594,17.594h11.73v23.459A5.865,5.865,0,0,1,334.294,293.24Z" transform="translate(0 0)" fill="#f9a826"/>
        <path id="Shape-4" data-name="Shape" d="M45.527,146.161a20.527,20.527,0,0,0,20.527-20.527V43.527a20.527,20.527,0,0,0-41.054,0v82.107A20.527,20.527,0,0,0,45.527,146.161ZM36.73,43.527a8.8,8.8,0,1,1,17.594,0v82.107a8.8,8.8,0,1,1-17.594,0Z" transform="translate(121.62 111.89)" fill="#f9a826"/>
        <path id="Shape-5" data-name="Shape" d="M36.527,146.161a20.527,20.527,0,0,0,20.527-20.527V43.527a20.527,20.527,0,0,0-41.054,0v82.107A20.527,20.527,0,0,0,36.527,146.161ZM27.73,43.527a8.8,8.8,0,0,1,17.594,0v82.107a8.8,8.8,0,1,1-17.594,0Z" transform="translate(77.837 111.89)" fill="#f9a826"/>
        <path id="Shape-6" data-name="Shape" d="M27.527,146.161a20.527,20.527,0,0,0,20.527-20.527V43.527A20.527,20.527,0,0,0,7,43.527v82.107A20.527,20.527,0,0,0,27.527,146.161ZM18.73,43.527a8.8,8.8,0,1,1,17.594,0v82.107a8.8,8.8,0,1,1-17.594,0Z" transform="translate(34.054 111.89)" fill="#f9a826"/>
        <path id="Shape-7" data-name="Shape" d="M69.525,30.838a5.865,5.865,0,0,0-8.047,2.006L43.884,62.168a5.865,5.865,0,1,0,10.052,6.041L71.531,38.885a5.865,5.865,0,0,0-2.006-8.047Z" transform="translate(209.141 145.944)" fill="#f9a826"/>
        <path id="Shape-8" data-name="Shape" d="M19.267,30.111a5.865,5.865,0,0,0,7.718-3.02,6.264,6.264,0,0,1,9.782,0,5.865,5.865,0,0,0,5.378,3.519,5.783,5.783,0,0,0,2.346-.493,5.865,5.865,0,0,0,3.026-7.724,16.715,16.715,0,0,0-15.641-9.384,16.715,16.715,0,0,0-15.636,9.384,5.865,5.865,0,0,0,3.026,7.718Z" transform="translate(76.622 63.233)" fill="#f9a826"/>
      </g>
    </g>
    <path id="Path_1" data-name="Path 1" d="M379.534,704.831H192.986s-3.781-41.353,18.591-41.823,19.852,18.327,47.9-7.519,62.077-24.436,66.488-9.163-8.507,27.49,15.125,23.731S398.755,676.166,379.534,704.831Z" transform="translate(1251.841 2207.308)" fill="#e6e6e6"/>
    <path id="Path_2" data-name="Path 2" d="M260.849,704.839l-.47-.019c1.1-27.226,6.8-44.717,11.388-54.6,4.984-10.728,9.787-15.071,9.836-15.114l.313.351c-.047.043-4.794,4.342-9.739,15C267.611,660.293,261.94,677.715,260.849,704.839Z" transform="translate(899.024 2207.311)" fill="#fff"/>
    <path id="Path_5" data-name="Path 5" d="M409.84,705.276H177.856l-.053-.586c-.133-1.457-3.093-35.841,11.848-48.109a18.961,18.961,0,0,1,11.958-4.279c9.739-.207,15.859,2.514,20.8,4.7,9.3,4.115,15.451,6.835,37.8-13.761,24.21-22.312,50.333-27.113,65.35-24.444,9.7,1.725,16.39,6.6,18.347,13.375,1.858,6.416,1.263,12.444.788,17.288-.508,5.183-.909,9.276,1.946,11.132,2.388,1.548,7.14,1.689,14.968.443,15.922-2.533,38.143-.366,49.295,10.379,6,5.781,10.727,16.287-.827,33.518Zm-230.4-1.257H408.8c8.61-13.024,8.879-24.027.771-31.838-10.231-9.857-31.695-12.451-47.609-9.919-8.506,1.353-13.573,1.13-16.427-.724-3.491-2.268-3.062-6.638-2.521-12.169.467-4.764,1.047-10.692-.755-16.932-1.815-6.283-8.044-10.809-17.09-12.417-14.538-2.586-39.937,2.154-63.648,24.011-23.264,21.44-30.274,18.342-39.971,14.048-5-2.21-10.671-4.716-19.889-4.521a17.06,17.06,0,0,0-10.758,3.867c-13.425,11.027-11.787,41.945-11.458,46.594Z" transform="translate(1246.852 2207.492)" fill="#2f2e41"/>
    <rect id="Rectangle_21" data-name="Rectangle 21" width="609" height="0.75" transform="translate(1055 2912.716)" fill="#3f3d56"/>
    <path id="Intersection_1" data-name="Intersection 1" d="M-2177.509,121a26.148,26.148,0,0,1-2.037-10.1,26.264,26.264,0,0,1,15.565-24,40.68,40.68,0,0,1-3.829-17.007q0-.24,0-.479a38.708,38.708,0,0,1,18.42-33.027,23.354,23.354,0,0,1-6.686-16.345,11.73,11.73,0,0,1,11.73-11.73h23.459a11.73,11.73,0,0,1,11.73,11.73,23.389,23.389,0,0,1-6.728,16.421,36.188,36.188,0,0,1,13.226,13.431,28.59,28.59,0,0,1,5.231-.528A29.377,29.377,0,0,1-2068.6,73.319a29.272,29.272,0,0,1,18.122,11.413,25.863,25.863,0,0,1,24.861,11.606,20.381,20.381,0,0,1,16.885,6.785,20.379,20.379,0,0,1,5.138,13.514A20.38,20.38,0,0,1-2004,120.7q.436.142.86.3Zm9.7-10.058a14.291,14.291,0,0,0,3.015,8.8h148.942a8.683,8.683,0,0,0,.525-2.99,8.7,8.7,0,0,0-2.433-6.018,8.7,8.7,0,0,0-8.93-2.246,5.865,5.865,0,0,1-7.4-3.249,14.6,14.6,0,0,0-13.489-8.955,14.367,14.367,0,0,0-4.053.644,5.863,5.863,0,0,1-6.82-2.891,17.594,17.594,0,0,0-15.519-9.483,5.865,5.865,0,0,1-5.865-5.865,17.6,17.6,0,0,0-15.751-17.438,17.6,17.6,0,0,0-19.039,13.774,5.862,5.862,0,0,1-2.712,3.818,5.866,5.866,0,0,1-4.642.616,17.292,17.292,0,0,0-4.774-.769,17.6,17.6,0,0,0-17.061,13.478,5.865,5.865,0,0,1-6.569,4.4,18.7,18.7,0,0,0-2.762-.287,14.662,14.662,0,0,0-14.662,14.662Zm11.729-41.053a28.906,28.906,0,0,0,3.22,13.306,28.783,28.783,0,0,1,28.514-16.122,29.416,29.416,0,0,1,10.622-12.721,22.7,22.7,0,0,0-18.9-10.856,25.084,25.084,0,0,0-23.5,25.029Q-2156.119,69.2-2156.082,69.889Zm23.459-38.121a11.73,11.73,0,0,0,11.73-11.73h-23.459A11.73,11.73,0,0,0-2132.622,31.767Zm42.525,70.384a5.865,5.865,0,0,1-5.377-3.519,6.263,6.263,0,0,0-4.891-2.351,6.265,6.265,0,0,0-4.892,2.351,5.864,5.864,0,0,1-7.718,3.02,5.868,5.868,0,0,1-3.517-5.372,5.847,5.847,0,0,1,.49-2.347,16.715,16.715,0,0,1,15.636-9.383,16.714,16.714,0,0,1,15.642,9.383,5.863,5.863,0,0,1,.491,2.379,5.861,5.861,0,0,1-.4,2.11,5.864,5.864,0,0,1-3.113,3.235,5.786,5.786,0,0,1-2.34.493Z" transform="translate(3267.308 2565)" fill="#3f3d56"/>
  </g>
</svg>
