<svg xmlns="http://www.w3.org/2000/svg" width="1525.348" height="426.685" viewBox="0 0 1525.348 426.685">
  <g id="draw-distancia" transform="translate(-257 -1152.709)">
    <rect id="Rectangle_124" data-name="Rectangle 124" width="1406" height="318" rx="10" transform="translate(257 1206)" fill="#3f3d56"/>
    <path id="Path_116" data-name="Path 116" d="M612.455,319.289c-52.195-27.461-107.113-53.5-163.214-77.391l-2.816-1.2v81.028H617.089Zm-162.3-.256V245.421c53.37,22.806,105.63,47.552,155.466,73.612ZM876.609,485.81q-33.859-25.43-69.472-49.7-9.818-6.7-19.757-13.289-60.657-40.251-125.3-76.562l-.5-.283H446.425V488.093H879.649ZM450.154,485.4V348.669H660.3Q722.631,383.7,781.59,422.645q10.237,6.759,20.335,13.626,35.3,23.965,68.95,49.128Zm426.455.411q-33.859-25.43-69.472-49.7-9.818-6.7-19.757-13.289-60.657-40.251-125.3-76.562l-.5-.283H446.425V488.093H879.649ZM450.154,485.4V348.669H660.3Q722.631,383.7,781.59,422.645q10.237,6.759,20.335,13.626,35.3,23.965,68.95,49.128Zm162.3-166.11c-52.195-27.461-107.113-53.5-163.214-77.391l-2.816-1.2v81.028H617.089Zm-162.3-.256V245.421c53.37,22.806,105.63,47.552,155.466,73.612Zm162.3.256c-52.195-27.461-107.113-53.5-163.214-77.391l-2.816-1.2v81.028H617.089Zm-162.3-.256V245.421c53.37,22.806,105.63,47.552,155.466,73.612ZM876.609,485.81q-33.859-25.43-69.472-49.7-9.818-6.7-19.757-13.289-60.657-40.251-125.3-76.562l-.5-.283H446.425V488.093H879.649ZM450.154,485.4V348.669H660.3Q722.631,383.7,781.59,422.645q10.237,6.759,20.335,13.626,35.3,23.965,68.95,49.128ZM261.831,512.341v2.694h147.3l3.73-2.694Zm762.674,2.694v-2.694H446.425l3.729,2.694Zm-348.293-196a1991.51,1991.51,0,0,0-226.058-107.6V184.155l-3.73,27.739,2.872,2.281A1986.742,1986.742,0,0,1,674.44,321.444l.5.283h349.562v-2.694Zm-267.083,0h-147.3v2.694H412.86V186.654l-3.73.249Zm615.376,26.942H717.2l4.019,2.384q56.754,33.735,111.448,71.558,7.776,5.375,15.5,10.837,38.433,27.127,75.365,56.026l3.075,1.313h97.9V485.4H926.837q-36.531-28.612-74.647-55.568-7.622-5.4-15.3-10.716-53.51-37.089-109.3-70.446h296.919Zm-762.674,0v2.694h147.3V485.4h-147.3v2.694H412.86V345.974Zm350.624-26.686c-52.195-27.461-107.112-53.5-163.214-77.39l-2.816-1.2v81.028H617.089Zm-162.3-.256V245.421c53.37,22.806,105.63,47.552,155.466,73.612ZM876.609,485.81q-33.86-25.43-69.472-49.7-9.818-6.7-19.757-13.289-60.657-40.251-125.3-76.562l-.5-.283H446.425V488.093H879.649ZM450.154,485.4V348.669H660.3Q722.631,383.7,781.59,422.645q10.237,6.759,20.335,13.626,35.3,23.965,68.95,49.128Zm162.3-166.111c-52.195-27.461-107.113-53.5-163.214-77.391l-2.816-1.2v81.028H617.089Zm-162.3-.256V245.421c53.37,22.806,105.63,47.552,155.466,73.612ZM876.609,485.81q-33.859-25.43-69.472-49.7-9.818-6.7-19.757-13.289-60.657-40.251-125.3-76.562l-.5-.283H446.425V488.093H879.649ZM450.154,485.4V348.669H660.3Q722.631,383.7,781.59,422.645q10.237,6.759,20.335,13.626,35.3,23.965,68.95,49.128Z" transform="translate(-4.831 968.554)" fill="#fff"/>
    <path id="Path_117" data-name="Path 117" d="M580.662,362.319c0,34.117-61.774,110.118-61.774,110.118s-61.774-76-61.774-110.118a61.773,61.773,0,1,1,123.547,0Z" transform="translate(170.69 946.975)" fill="#f9a826"/>
    <path id="Path_118" data-name="Path 118" d="M554.76,366.654a28.239,28.239,0,1,1-28.239-28.239,28.239,28.239,0,0,1,28.239,28.239Z" transform="translate(163.058 939.954)" fill="#fff"/>
    <circle id="Ellipse_34" data-name="Ellipse 34" cx="16.652" cy="16.652" r="16.652" transform="translate(672.926 1430.693)" fill="#f9a826"/>
    <circle id="Ellipse_36" data-name="Ellipse 36" cx="12.461" cy="12.461" r="12.461" transform="translate(988.872 1404.108)" fill="#fff"/>
    <path id="Path_122" data-name="Path 122" d="M677.1,386.44h-2.552l1.163-39.409Z" transform="translate(325.43 1067.661)" fill="#cbcbcb"/>
    <path id="Path_123" data-name="Path 123" d="M676.179,355.337l2.74-3.791-2.778,4.73-.3-.525Z" transform="translate(325.19 1066.824)" fill="#cbcbcb"/>
    <path id="Path_124" data-name="Path 124" d="M675.264,360.036l-2.74-3.79,2.778,4.729.3-.525Z" transform="translate(325.806 1065.953)" fill="#cbcbcb"/>
    <circle id="Ellipse_37" data-name="Ellipse 37" cx="18.403" cy="18.403" r="18.403" transform="translate(947.499 1380.267)" fill="#fff"/>
    <path id="Path_125" data-name="Path 125" d="M634.035,382.162h-3.769l1.719-58.2Z" transform="translate(333.64 1071.939)" fill="#cbcbcb"/>
    <path id="Path_126" data-name="Path 126" d="M632.671,336.226l4.046-5.6-4.1,6.984-.443-.776Z" transform="translate(333.287 1070.702)" fill="#cbcbcb"/>
    <path id="Path_127" data-name="Path 127" d="M631.319,343.167l-4.047-5.6,4.1,6.984.443-.776Z" transform="translate(334.195 1069.415)" fill="#cbcbcb"/>
    <circle id="Ellipse_38" data-name="Ellipse 38" cx="12.461" cy="12.461" r="12.461" transform="translate(526.177 1404.108)" fill="#fff"/>
    <path id="Path_128" data-name="Path 128" d="M109.1,386.44h-2.552l1.163-39.409Z" transform="translate(430.735 1067.661)" fill="#cbcbcb"/>
    <path id="Path_129" data-name="Path 129" d="M108.179,355.337l2.74-3.791-2.778,4.73-.3-.525Z" transform="translate(430.496 1066.824)" fill="#cbcbcb"/>
    <path id="Path_130" data-name="Path 130" d="M107.264,360.036l-2.74-3.79,2.778,4.729.3-.525Z" transform="translate(431.111 1065.953)" fill="#cbcbcb"/>
    <circle id="Ellipse_39" data-name="Ellipse 39" cx="18.403" cy="18.403" r="18.403" transform="translate(484.804 1380.267)" fill="#fff"/>
    <path id="Path_131" data-name="Path 131" d="M66.035,382.162H62.266l1.719-58.2Z" transform="translate(438.946 1071.939)" fill="#cbcbcb"/>
    <path id="Path_132" data-name="Path 132" d="M64.671,336.226l4.046-5.6-4.1,6.984-.443-.776Z" transform="translate(438.592 1070.702)" fill="#cbcbcb"/>
    <path id="Path_133" data-name="Path 133" d="M63.319,343.167l-4.047-5.6,4.1,6.984.443-.776Z" transform="translate(439.5 1069.415)" fill="#cbcbcb"/>
    <g id="undraw_Map_dark_re_36sy" transform="translate(1213.164 1132)">
      <path id="Path_116-2" data-name="Path 116" d="M612.455,319.289c-52.195-27.461-107.113-53.5-163.214-77.391l-2.816-1.2v81.028H617.089Zm-162.3-.256V245.421c53.37,22.806,105.63,47.552,155.466,73.612ZM876.609,485.81q-33.859-25.43-69.472-49.7-9.818-6.7-19.757-13.289-60.657-40.251-125.3-76.562l-.5-.283H446.425V488.093H879.649ZM450.154,485.4V348.669H660.3Q722.631,383.7,781.59,422.645q10.237,6.759,20.335,13.626,35.3,23.965,68.95,49.128Zm426.455.411q-33.859-25.43-69.472-49.7-9.818-6.7-19.757-13.289-60.657-40.251-125.3-76.562l-.5-.283H446.425V488.093H879.649ZM450.154,485.4V348.669H660.3Q722.631,383.7,781.59,422.645q10.237,6.759,20.335,13.626,35.3,23.965,68.95,49.128Zm162.3-166.11c-52.195-27.461-107.113-53.5-163.214-77.391l-2.816-1.2v81.028H617.089Zm-162.3-.256V245.421c53.37,22.806,105.63,47.552,155.466,73.612Zm162.3.256c-52.195-27.461-107.113-53.5-163.214-77.391l-2.816-1.2v81.028H617.089Zm-162.3-.256V245.421c53.37,22.806,105.63,47.552,155.466,73.612ZM876.609,485.81q-33.859-25.43-69.472-49.7-9.818-6.7-19.757-13.289-60.657-40.251-125.3-76.562l-.5-.283H446.425V488.093H879.649ZM450.154,485.4V348.669H660.3Q722.631,383.7,781.59,422.645q10.237,6.759,20.335,13.626,35.3,23.965,68.95,49.128ZM261.831,512.341v2.694h147.3V554.1h-147.3v2.694H412.86V512.341Zm184.594,68.7v27.3l3.73-.249V583.737h574.35v-2.694Zm578.08-66.008v-2.694H446.425v44.454h578.08V554.1H450.154V515.035Zm-348.293-196a1991.51,1991.51,0,0,0-226.058-107.6V184.155l-3.73.249v27.49l2.872,2.281A1986.742,1986.742,0,0,1,674.44,321.444l.5.283h349.562v-2.694Zm-267.083,0h-147.3v2.694H412.86V186.654l-3.73.249Zm615.376,26.942H717.2l4.019,2.384q56.754,33.735,111.448,71.558,7.776,5.375,15.5,10.837,38.433,27.127,75.365,56.026l3.075,1.313h97.9V485.4H926.837q-36.531-28.612-74.647-55.568-7.622-5.4-15.3-10.716-53.51-37.089-109.3-70.446h296.919ZM261.831,581.043v2.694h147.3v27.1l3.73-.249V581.043Zm0-235.068v2.694h147.3V485.4h-147.3v2.694H412.86V345.974Zm350.624-26.686c-52.195-27.461-107.112-53.5-163.214-77.39l-2.816-1.2v81.028H617.089Zm-162.3-.256V245.421c53.37,22.806,105.63,47.552,155.466,73.612ZM876.609,485.81q-33.86-25.43-69.472-49.7-9.818-6.7-19.757-13.289-60.657-40.251-125.3-76.562l-.5-.283H446.425V488.093H879.649ZM450.154,485.4V348.669H660.3Q722.631,383.7,781.59,422.645q10.237,6.759,20.335,13.626,35.3,23.965,68.95,49.128Zm162.3-166.111c-52.195-27.461-107.113-53.5-163.214-77.391l-2.816-1.2v81.028H617.089Zm-162.3-.256V245.421c53.37,22.806,105.63,47.552,155.466,73.612ZM876.609,485.81q-33.859-25.43-69.472-49.7-9.818-6.7-19.757-13.289-60.657-40.251-125.3-76.562l-.5-.283H446.425V488.093H879.649ZM450.154,485.4V348.669H660.3Q722.631,383.7,781.59,422.645q10.237,6.759,20.335,13.626,35.3,23.965,68.95,49.128Z" transform="translate(-455.321 -163.446)" fill="#fff"/>
      <g id="Group_24" data-name="Group 24" transform="translate(62.283 -11.673)">
        <path id="Path_117-2" data-name="Path 117" d="M506.1,325.036c0,13.526-24.49,43.656-24.49,43.656s-24.49-30.131-24.49-43.656a24.49,24.49,0,1,1,48.98,0Z" transform="translate(-279.799 -185.024)" fill="#f9a826"/>
        <path id="Path_118-2" data-name="Path 118" d="M520.672,349.61a11.2,11.2,0,1,1-11.2-11.2,11.2,11.2,0,0,1,11.2,11.2Z" transform="translate(-307.671 -210.664)" fill="#fff"/>
        <circle id="Ellipse_34-2" data-name="Ellipse 34" cx="6.602" cy="6.602" r="6.602" transform="translate(195.204 188.14)" fill="#f9a826"/>
      </g>
      <circle id="Ellipse_38-2" data-name="Ellipse 38" cx="12.461" cy="12.461" r="12.461" transform="translate(75.688 272.109)" fill="#fff"/>
      <path id="Path_128-2" data-name="Path 128" d="M109.1,386.44h-2.552l1.163-39.409Z" transform="translate(-19.754 -64.338)" fill="#cbcbcb"/>
      <path id="Path_129-2" data-name="Path 129" d="M108.179,355.337l2.74-3.791-2.778,4.73-.3-.525Z" transform="translate(-19.994 -65.175)" fill="#cbcbcb"/>
      <path id="Path_130-2" data-name="Path 130" d="M107.264,360.036l-2.74-3.79,2.778,4.729.3-.525Z" transform="translate(-19.378 -66.047)" fill="#cbcbcb"/>
      <circle id="Ellipse_39-2" data-name="Ellipse 39" cx="18.403" cy="18.403" r="18.403" transform="translate(34.314 248.267)" fill="#fff"/>
      <path id="Path_131-2" data-name="Path 131" d="M66.035,382.162H62.266l1.719-58.2Z" transform="translate(-11.544 -60.061)" fill="#cbcbcb"/>
      <path id="Path_132-2" data-name="Path 132" d="M64.671,336.226l4.046-5.6-4.1,6.984-.443-.776Z" transform="translate(-11.897 -61.297)" fill="#cbcbcb"/>
      <path id="Path_133-2" data-name="Path 133" d="M63.319,343.167l-4.047-5.6,4.1,6.984.443-.776Z" transform="translate(-10.989 -62.584)" fill="#cbcbcb"/>
    </g>
  </g>
</svg>
