<svg xmlns="http://www.w3.org/2000/svg" width="622" height="366.862" viewBox="0 0 622 366.862">
  <g id="draw-limpeza" transform="translate(-22.508 -8.411)">
    <rect id="Rectangle_121" data-name="Rectangle 121" width="622" height="344.085" transform="translate(22.508 8.412)" fill="#f2f2f2"/>
    <path id="Path_101" data-name="Path 101" d="M885,158.44S626.6,185.2,579.537,288.562,263,501.74,263,501.74H885Z" transform="translate(-240.492 -149.635)" opacity="0.1"/>
    <g id="Group_18" data-name="Group 18" transform="translate(397.916 67.238)">
      <path id="Path_103" data-name="Path 103" d="M674.71,343.023v3.824s-2.732,1.093-2.732,5.463-2.185,20.761-2.185,20.761,3.824,3.278,7.1,2.185a13.347,13.347,0,0,0,4.917-2.732l.546-16.937-2.185-4.371v-7.649Z" transform="translate(-669.793 -191.138)" fill="#d1215f"/>
      <path id="Path_104" data-name="Path 104" d="M786.948,178.44s-9.5,1.093-9.5,5.464-7.6,20.761-7.6,20.761,13.3,3.278,24.7,2.185,17.1-2.732,17.1-2.732l1.9-16.937-7.6-4.371Z" transform="translate(-677.512 -178.44)" fill="#d1215f"/>
      <path id="Path_105" data-name="Path 105" d="M788.9,217.095V206.714s-11.473-22.947-2.185-22.947,10.38,20.761,10.38,20.761V219.28Z" transform="translate(-678.533 -178.851)" fill="#ffb8b8"/>
      <path id="Path_106" data-name="Path 106" d="M682.039,337.573s-6.01-3.278-7.1,0-4.371,10.381,0,10.927,8.742-3.278,8.742-3.278Z" transform="translate(-670.019 -190.605)" fill="#ffb8b8"/>
      <path id="Path_107" data-name="Path 107" d="M714.777,361.294s-3.29,4.345,1.484,46.733,2.023,73.252,11.084,72.829c0,0-2.365,9.191,5.335,9.531s11.217.873,11.817-1.25,1.538-11.947-.553-11.849c0,0,.13,2.788,1-8.429s-1.6-64.191,1.56-71.324L758.862,422.8s.553,11.849,2.9,17.328S769.1,477.51,769.1,477.51l-.469,4.912s16.859,2.007,17.426-.814.372-7-.391-8.364-.762-1.362.5-4.215a8.45,8.45,0,0,0,.371-7c-.795-2.059-2.91-47.365-2.91-47.365s-3.965-55-12.459-57.4S714.777,361.294,714.777,361.294Z" transform="translate(-673.178 -192.195)" fill="#2f2e41"/>
      <path id="Path_108" data-name="Path 108" d="M729.945,495.659l-5.121,10.019s-8.859-2.73-6.742,5.2a139.439,139.439,0,0,0,25.425-1.536s3.55,1.231,4.15-.892-2.182-9.328-4.273-9.231S729.945,495.659,729.945,495.659Z" transform="translate(-673.493 -202.914)" fill="#2f2e41"/>
      <path id="Path_109" data-name="Path 109" d="M774.346,490.339s-4.99,12.807-2.867,13.406,21.073,2.509,22.5,3.141,8.43,1,8.931-3.211-3.745-5.413-3.745-5.413-7.732-1.036-10.149-7.909S774.346,490.339,774.346,490.339Z" transform="translate(-677.597 -202.269)" fill="#2f2e41"/>
      <circle id="Ellipse_33" data-name="Ellipse 33" cx="14.594" cy="14.594" r="14.594" transform="translate(34.837 36)" fill="#ffb8b8"/>
      <path id="Path_110" data-name="Path 110" d="M715.033,240.431s3.841,19.971,2.3,23.812,21.507-1.536,21.507-1.536-4.609-19.971-3.841-24.58S715.033,240.431,715.033,240.431Z" transform="translate(-673.283 -182.923)" fill="#ffb8b8"/>
      <path id="Path_111" data-name="Path 111" d="M721.486,213.72a8.25,8.25,0,0,0-3.651.161,9.519,9.519,0,0,0-2.594,1.7,30.364,30.364,0,0,1-4.436,2.939,10.352,10.352,0,0,0-3.452,2.42,7.349,7.349,0,0,0-.974,1.844,22.1,22.1,0,0,0-1.162,12.026,5.532,5.532,0,0,0,.512,1.651c.8,1.471,2.562,2.051,4.047,2.822,2.82,1.464,4.958,3.929,7.271,6.107a14.211,14.211,0,0,0,2.873,2.214c3.3,1.8,7.333,1.212,11.037.576a1.989,1.989,0,0,0,1.985-2.008l2.924-13.151a21.455,21.455,0,0,0,.749-5.981c-.2-3.192-1.932-7.614-4.275-9.882C729.611,214.518,725.055,214.1,721.486,213.72Z" transform="translate(-672.498 -181.152)" fill="#2f2e41"/>
      <path id="Path_112" data-name="Path 112" d="M709.911,266.964s1.093-7.649,7.649-8.2a54.053,54.053,0,0,0,10.927-2.185c.547,0,7.649.546,10.927,3.824,0,0,2.185,3.278,3.278,1.093s1.093-3.278,3.278-2.185,2.185-3.278,6.01-2.732,13.659,25.132,13.659,25.132l-3.278,3.825s-4.371,29.5,3.278,42.069,10.927,26.225,3.278,28.957-61.191,27.318-59.006,12.02.546-39.337-1.639-39.884-14.205-43.708-14.205-43.708a16.97,16.97,0,0,1,9.834-12.566C712.642,268.6,709.911,266.964,709.911,266.964Z" transform="translate(-671.665 -184.465)" fill="#f9a826"/>
      <path id="Path_113" data-name="Path 113" d="M753.86,255.666l2.732-2.185s4.917,0,5.464-1.093,3.278-1.093,5.463-2.185-.546-2.732,2.185-3.824,2.732,0,2.732-2.732,7.1-5.464,7.649-8.742,6.01-18.576,6.01-18.576l10.381,3.278-2.732,19.669s0,9.834-4.917,16.391-15.844,22.947-21.308,23.493S753.86,255.666,753.86,255.666Z" transform="translate(-676.279 -181.363)" fill="#f9a826"/>
      <path id="Path_114" data-name="Path 114" d="M696.385,284.412l-3.278,2.732s-1.093,12.02-1.093,12.566,1.093,7.1,0,7.649-3.278,11.473-2.732,12.02h0v1.639l-7.649,12.02v11.473l18.03-11.473s10.381-1.093,8.742-10.381S696.385,284.412,696.385,284.412Z" transform="translate(-670.706 -186.616)" fill="#f9a826"/>
    </g>
  </g>
</svg>
