<svg xmlns="http://www.w3.org/2000/svg" xmlns:xlink="http://www.w3.org/1999/xlink" width="54.398" height="54.398" viewBox="0 0 54.398 54.398">
  <defs>
    <linearGradient id="linear-gradient" x1="0.5" y1="1" x2="0.5" gradientUnits="objectBoundingBox">
      <stop offset="0" stop-color="gray" stop-opacity="0.251"/>
      <stop offset="0.54" stop-color="gray" stop-opacity="0.122"/>
      <stop offset="1" stop-color="gray" stop-opacity="0.102"/>
    </linearGradient>
  </defs>
  <g id="img-comentario" transform="translate(0)">
    <g id="Group_37" data-name="Group 37" transform="translate(0 0)" opacity="0.5">
      <ellipse id="Ellipse_40" data-name="Ellipse 40" cx="27.199" cy="27.199" rx="27.199" ry="27.199" transform="translate(0 0)" fill="url(#linear-gradient)"/>
    </g>
    <circle id="Ellipse_41" data-name="Ellipse 41" cx="26.624" cy="26.624" r="26.624" transform="translate(0.575 0.427)" fill="#f5f5f5"/>
    <path id="Path_134" data-name="Path 134" d="M276.468,274.237a26.5,26.5,0,0,0,14.636-4.379c-.981-5.361-4.715-5.668-4.715-5.668H265.8s-3.52.289-4.624,5.222A26.5,26.5,0,0,0,276.468,274.237Z" transform="translate(-249.194 -220.487)" fill="#6c63ff"/>
    <ellipse id="Ellipse_42" data-name="Ellipse 42" cx="11.803" cy="11.803" rx="11.803" ry="11.803" transform="translate(15.192 14.662)" fill="#333"/>
    <path id="Path_135" data-name="Path 135" d="M98.18,164.57h8.236v6.588a4.117,4.117,0,0,1-4.117,4.117h0a4.117,4.117,0,0,1-4.117-4.117V164.57Z" transform="translate(-75.332 -127.401)" opacity="0.1"/>
    <path id="Path_136" data-name="Path 136" d="M98.974,163.27h6.663a.786.786,0,0,1,.786.786v5.8a4.117,4.117,0,0,1-4.117,4.117h0a4.117,4.117,0,0,1-4.117-4.117v-5.8a.786.786,0,0,1,.784-.786Z" transform="translate(-75.34 -126.406)" fill="#be7c5e"/>
    <path id="Path_137" data-name="Path 137" d="M307.53,246.378a11.852,11.852,0,0,0,8.236.023V245.39H307.53Z" transform="translate(-284.666 -206.099)" opacity="0.1"/>
    <ellipse id="Ellipse_43" data-name="Ellipse 43" cx="11.803" cy="11.803" rx="11.803" ry="11.803" transform="translate(15.192 17.225)" fill="#be7c5e"/>
    <path id="Path_138" data-name="Path 138" d="M259.106,132.813a2.061,2.061,0,0,1,.77-1.335,2.192,2.192,0,0,1,1.227-.157,33.326,33.326,0,0,0,9.67-1.342c1.814-.444,3.755-.983,4.929-2.446s-.357-6.058-2.143-6.6c-1.173-.359-2.535.31-3.647-.216a7.082,7.082,0,0,1-1.286-1.016,7.733,7.733,0,0,0-3.089-1.256,6.225,6.225,0,0,0-3.856-.117,28.131,28.131,0,0,0-2.514,1.7c-1.692.939-3.755.5-5.694.5-.655,0-1.436.131-1.7.732a3,3,0,0,0-.016,1.317c.056,1.408-1.105,2.5-2.079,3.52s-1.894,2.467-1.279,3.729c.235.481.664.845.908,1.321.42.826.209,1.824.361,2.737a6.886,6.886,0,0,0,.767,1.971c.723,1.408,4.354,8.989,6.022,7.062.807-.939.939-3.652,1.265-4.872Q258.4,135.413,259.106,132.813Z" transform="translate(-239.263 -108.653)" fill="#333"/>
    <ellipse id="Ellipse_44" data-name="Ellipse 44" cx="1.098" cy="2.058" rx="1.098" ry="2.058" transform="translate(17.499 26.54)" fill="#be7c5e"/>
  </g>
</svg>
