<svg id="instagram" xmlns="http://www.w3.org/2000/svg" width="18.916" height="18.916" viewBox="0 0 18.916 18.916">
  <g id="Group_2" data-name="Group 2">
    <g id="Group_1" data-name="Group 1">
      <path id="Path_1" data-name="Path 1" d="M13.421,0H5.495A5.5,5.5,0,0,0,0,5.495v7.926a5.5,5.5,0,0,0,5.495,5.495h7.926a5.5,5.5,0,0,0,5.495-5.495V5.495A5.5,5.5,0,0,0,13.421,0Zm4.017,13.421a4.021,4.021,0,0,1-4.017,4.017H5.495a4.021,4.021,0,0,1-4.017-4.017V5.495A4.021,4.021,0,0,1,5.495,1.478h7.926a4.021,4.021,0,0,1,4.017,4.017Z" fill="#100a76"/>
    </g>
  </g>
  <g id="Group_4" data-name="Group 4" transform="translate(4.36 4.359)">
    <g id="Group_3" data-name="Group 3">
      <path id="Path_2" data-name="Path 2" d="M123.1,118a5.1,5.1,0,1,0,5.1,5.1A5.1,5.1,0,0,0,123.1,118Zm0,8.719a3.621,3.621,0,1,1,3.621-3.621A3.625,3.625,0,0,1,123.1,126.719Z" transform="translate(-118 -118)" fill="#100a76"/>
    </g>
  </g>
  <g id="Group_6" data-name="Group 6" transform="translate(14.034 3.966)">
    <g id="Group_5" data-name="Group 5" transform="translate(0 0)">
      <ellipse id="Ellipse_1" data-name="Ellipse 1" cx="0.458" cy="0.458" rx="0.458" ry="0.458" fill="#100a76"/>
    </g>
  </g>
</svg>
