<svg xmlns="http://www.w3.org/2000/svg" width="446.247" height="382" viewBox="0 0 446.247 382">
  <g id="mail" transform="translate(0.001)">
    <path id="Path_3" data-name="Path 3" d="M442.893,660.341c7.164-6.053,11.515-15.615,10.374-24.924s-8.209-17.867-17.377-19.844-19.619,3.5-22.4,12.451c-1.532-17.266-3.3-35.256-12.478-49.96C392.7,564.751,378.3,555.224,362.7,553.52s-32.031,4.733-41.762,17.048-12.113,30.219-5.3,44.358c5.021,10.415,14.27,18.167,23.962,24.473a154.648,154.648,0,0,0,105.769,23.139" transform="translate(-311.75 -282.328)" fill="#f2f2f2"/>
    <path id="Path_4" data-name="Path 4" d="M342.8,560.07a255.173,255.173,0,0,1,74.978,101.384c.715,1.753-2.131,2.515-2.838.782a252.552,252.552,0,0,0-74.221-100.085c-1.469-1.2.624-3.267,2.081-2.081Z" transform="translate(-318.182 -283.789)" fill="#fff"/>
    <path id="Path_5" data-name="Path 5" d="M484.484,660.341c-7.164-6.053-11.515-15.615-10.374-24.924s8.209-17.867,17.377-19.844,19.619,3.5,22.4,12.451c1.532-17.266,3.3-35.256,12.478-49.96,8.312-13.314,22.709-22.841,38.312-24.545s32.031,4.733,41.762,17.048,12.113,30.219,5.3,44.358c-5.021,10.415-14.27,18.167-23.962,24.473A154.648,154.648,0,0,1,482.01,662.537" transform="translate(-348.393 -282.328)" fill="#f2f2f2"/>
    <path id="Path_6" data-name="Path 6" d="M603.269,560.07a255.173,255.173,0,0,0-74.978,101.384c-.715,1.753,2.131,2.515,2.838.782A252.334,252.334,0,0,1,605.35,562.151c1.469-1.2-.624-3.267-2.081-2.081Z" transform="translate(-360.649 -283.789)" fill="#fff"/>
    <circle id="Ellipse_2" data-name="Ellipse 2" cx="23.996" cy="23.996" r="23.996" transform="translate(133.353 123.85)" fill="#f2f2f2"/>
    <path id="Path_7" data-name="Path 7" d="M400.6,287.388H565.924v9.045H421.7A64.571,64.571,0,0,0,357.132,361V463.767h-18.09a3.015,3.015,0,0,1-3.015-3.015V351.959A64.571,64.571,0,0,1,400.6,287.388Z" transform="translate(-317.235 -222.26)" fill="#f2f2f2"/>
    <path id="Path_8" data-name="Path 8" d="M460.527,652.146V514.75h40.251v137.4a3.487,3.487,0,0,1-3.483,3.483H464.01A3.487,3.487,0,0,1,460.527,652.146Z" transform="translate(-345.365 -273.629)" fill="#3f3d56"/>
    <path id="Path_9" data-name="Path 9" d="M325.027,459.059V347.335a67.16,67.16,0,0,1,67.084-67.085H562.664V462.929H328.9A3.875,3.875,0,0,1,325.027,459.059ZM561.116,281.8H392.111a65.611,65.611,0,0,0-65.536,65.536V459.059a2.325,2.325,0,0,0,2.322,2.322H561.116Z" transform="translate(-314.75 -220.647)" fill="#3f3d56"/>
    <path id="Path_10" data-name="Path 10" d="M493.337,363.481A13.949,13.949,0,0,1,479.4,349.548V249.694a2.325,2.325,0,0,0-2.322-2.322H422.9a3.875,3.875,0,0,1-3.87-3.87V207.12a3.875,3.875,0,0,1,3.87-3.87h80.5a3.875,3.875,0,0,1,3.87,3.87V349.548a13.949,13.949,0,0,1-13.933,13.933Z" transform="translate(-335.988 -203.25)" fill="#6c63ff"/>
    <path id="Path_11" data-name="Path 11" d="M627.149,278.25h0a44.029,44.029,0,0,1,44.122,43.937V449.373h86.7a13.132,13.132,0,0,1,13.159,13.1h-188.1V322.187A44.029,44.029,0,0,1,627.149,278.25Z" transform="translate(-373.042 -220.195)" fill="#3f3d56"/>
    <path id="Path_12" data-name="Path 12" d="M626.326,342.854l9.136,37.74,178.717-43.264-9.136-37.74a2.816,2.816,0,0,0-1.825-2.009,2.783,2.783,0,0,0-1.033-.155L698.879,243.937a2.85,2.85,0,0,0-3.6.866l-49.788,69.429-18.769,26.181a.4.4,0,0,0-.069.324A2.819,2.819,0,0,0,626.326,342.854Z" transform="translate(-382.807 -212.372)" fill="#fff"/>
    <path id="Path_13" data-name="Path 13" d="M626.763,340.737a.379.379,0,0,0,.157.244.433.433,0,0,0,.335.066.415.415,0,0,0,.231-.16l.064-.089.977-1.367,17.748-24.742,49.773-69.413a2.028,2.028,0,0,1,2.571-.616l102.505,53.075.92.477a1.01,1.01,0,0,0,.114.04,1.244,1.244,0,0,1,.21-.02.4.4,0,0,0,.224-.189.406.406,0,0,0-.169-.549l-.127-.068L698.993,243.937a2.85,2.85,0,0,0-3.6.866L645.6,314.232l-18.769,26.181a.4.4,0,0,0-.069.324Z" transform="translate(-382.921 -212.372)" fill="#3f3d56"/>
    <path id="Path_14" data-name="Path 14" d="M695.212,340.208l3.978.441,29.525,3.271,19.573,2.167,1.156.128,24.423-19.077.936-.731,5.769-4.505,20.523-16.028.123-1.126,7.3-65.884a3.448,3.448,0,0,0-3.041-3.8l-97.42-10.792a3.449,3.449,0,0,0-3.8,3.041l-5.148,46.472-2.856,25.765L693.7,322.6l-1.184,10.7-.346,3.1A3.45,3.45,0,0,0,695.212,340.208Z" transform="translate(-397.696 -207.995)" fill="#e6e6e6"/>
    <path id="Path_15" data-name="Path 15" d="M729.377,296.5l42.2,4.674,14.965,1.657a5.062,5.062,0,1,0,1.115-10.063l-18.614-2.062-38.548-4.274a5.065,5.065,0,0,0-1.117,10.068Z" transform="translate(-405.09 -222.037)" fill="#fff"/>
    <path id="Path_16" data-name="Path 16" d="M726.369,320.632c.109.019.218.039.329.05l48.987,5.427,8.179.908a5.064,5.064,0,0,0,1.113-10.067l-11.826-1.308-38.8-4.3-6.53-.724a5.062,5.062,0,0,0-1.447,10.014Z" transform="translate(-404.484 -227.501)" fill="#fff"/>
    <path id="Path_17" data-name="Path 17" d="M720.214,342.707a5.061,5.061,0,0,0,3.778,2.419l20.078,2.224,35.76,3.962.008,0,1.144.127,5.769-4.505a5.012,5.012,0,0,0,0-1.03,5.074,5.074,0,0,0-4.479-4.508l-4.967-.552L757.6,338.662l-14.178-1.573-18.314-2.03a5.062,5.062,0,0,0-4.891,7.647Z" transform="translate(-403.873 -233.024)" fill="#fff"/>
    <path id="Path_18" data-name="Path 18" d="M755.544,267.023l10.5,1.163,4.638.515,7.005.775A5.064,5.064,0,0,0,778.8,259.41l-22.138-2.45a5.063,5.063,0,0,0-1.119,10.064Z" transform="translate(-411.002 -215.378)" fill="#fff"/>
    <path id="Path_19" data-name="Path 19" d="M645.916,298.21l12.8,52.879,21.365,4.062,19.763,3.763,21.2,4.035,6.775,1.289a2.843,2.843,0,0,0,2.275-.551l5.435-4.245,3.442-2.687L763.4,337.678l-15.529-64.149a3.409,3.409,0,0,0-.963-1.671,3.444,3.444,0,0,0-3.193-.865l-95.264,23.061A3.445,3.445,0,0,0,645.916,298.21Z" transform="translate(-387.229 -218.534)" fill="#6c63ff"/>
    <path id="Path_20" data-name="Path 20" d="M683.822,354.753a5.067,5.067,0,0,0,6.112,3.729l55.9-13.532a5.07,5.07,0,0,0,3.729-6.112,1.622,1.622,0,0,0-.055-.191,5.061,5.061,0,0,0-6.057-3.538l-55.9,13.532A5.067,5.067,0,0,0,683.822,354.753Z" transform="translate(-395.783 -233.01)" fill="#fff"/>
    <path id="Path_21" data-name="Path 21" d="M690.082,374.97l19.763,3.763L751.71,368.6a5.063,5.063,0,1,0-2.382-9.841l-55.9,13.532a5.027,5.027,0,0,0-2.9,1.944A5.1,5.1,0,0,0,690.082,374.97Z" transform="translate(-397.23 -238.352)" fill="#fff"/>
    <path id="Path_22" data-name="Path 22" d="M743.008,388.793l6.775,1.289a2.843,2.843,0,0,0,2.275-.551l5.436-4.245Z" transform="translate(-409.188 -244.379)" fill="#fff"/>
    <path id="Path_23" data-name="Path 23" d="M698.373,320.542a5.067,5.067,0,0,0,6.112,3.729l21.651-5.241a5.07,5.07,0,0,0,3.729-6.112,5,5,0,0,0-.933-1.924,5.067,5.067,0,0,0-5.179-1.8L702.1,314.43A5.064,5.064,0,0,0,698.373,320.542Z" transform="translate(-399.071 -227.154)" fill="#fff"/>
    <path id="Path_24" data-name="Path 24" d="M695.421,368.455l21.208,4.036,6.773,1.29a2.855,2.855,0,0,0,2.274-.551l5.44-4.246-1.909.462-4.029,3.143a2.04,2.04,0,0,1-1.625.393l-5.015-.954-21.208-4.036Zm63.348-22.091.206.853.941-.731Zm-63.348,22.091,21.208,4.036,6.773,1.29a2.855,2.855,0,0,0,2.274-.551l5.44-4.246-1.909.462-4.029,3.143a2.04,2.04,0,0,1-1.625.393l-5.015-.954-21.208-4.036Zm0,0,21.208,4.036,6.773,1.29a2.855,2.855,0,0,0,2.274-.551l5.44-4.246-1.909.462-4.029,3.143a2.04,2.04,0,0,1-1.625.393l-5.015-.954-21.208-4.036Zm-69.1-9.9,23.931,98.856a2.838,2.838,0,0,0,3.423,2.089l173.205-41.929a2.838,2.838,0,0,0,2.089-3.423l-23.931-98.856a2.817,2.817,0,0,0-1.825-2.009,2.782,2.782,0,0,0-1.033-.155,2.678,2.678,0,0,0-1.172.308,2.465,2.465,0,0,0-.47.292l-14.215,11.1-20.644,16.126-6.916,5.4v.006h-.006l-25.363,19.8-4.193,3.281-4.029,3.143a2.041,2.041,0,0,1-1.625.393l-5.015-.954-21.208-4.036L676.1,363.956l-46.491-8.848a2.778,2.778,0,0,0-1.2.026,2.841,2.841,0,0,0-1.384.8,3.185,3.185,0,0,0-.382.5,2.819,2.819,0,0,0-.323,2.118Zm69.1,9.9,21.208,4.036,6.773,1.29a2.855,2.855,0,0,0,2.274-.551l5.44-4.246-1.909.462-4.029,3.143a2.04,2.04,0,0,1-1.625.393l-5.015-.954-21.208-4.036Zm0,0,21.208,4.036,6.773,1.29a2.855,2.855,0,0,0,2.274-.551l5.44-4.246-1.909.462-4.029,3.143a2.04,2.04,0,0,1-1.625.393l-5.015-.954-21.208-4.036Zm0,0,21.208,4.036,6.773,1.29a2.855,2.855,0,0,0,2.274-.551l5.44-4.246-1.909.462-4.029,3.143a2.04,2.04,0,0,1-1.625.393l-5.015-.954-21.208-4.036Z" transform="translate(-382.807 -228.075)" fill="#fff"/>
    <path id="Path_25" data-name="Path 25" d="M695.421,368.455l21.208,4.036,6.773,1.29a2.855,2.855,0,0,0,2.274-.551l5.44-4.246-1.909.462-4.029,3.143a2.04,2.04,0,0,1-1.625.393l-5.015-.954-21.208-4.036Zm63.348-22.091.206.853.941-.731Zm-63.348,22.091,21.208,4.036,6.773,1.29a2.855,2.855,0,0,0,2.274-.551l5.44-4.246-1.909.462-4.029,3.143a2.04,2.04,0,0,1-1.625.393l-5.015-.954-21.208-4.036Zm0,0,21.208,4.036,6.773,1.29a2.855,2.855,0,0,0,2.274-.551l5.44-4.246-1.909.462-4.029,3.143a2.04,2.04,0,0,1-1.625.393l-5.015-.954-21.208-4.036ZM627.437,356.5l.105.079c.018-.029.048-.055.072-.085a2.045,2.045,0,0,1,1.846-.594l46.2,8.789,19.761,3.766,21.208,4.036,6.773,1.29a2.855,2.855,0,0,0,2.274-.551l5.44-4.246-1.909.462-4.029,3.143a2.04,2.04,0,0,1-1.625.393l-5.015-.954-21.208-4.036L676.1,363.956l-46.491-8.848a2.779,2.779,0,0,0-1.2.026Zm-1.111,2.056,23.931,98.856a2.838,2.838,0,0,0,3.423,2.089l173.2-41.929a2.838,2.838,0,0,0,2.089-3.423l-23.931-98.856a2.817,2.817,0,0,0-1.825-2.009,2.783,2.783,0,0,0-1.033-.155,2.679,2.679,0,0,0-1.172.308,2.464,2.464,0,0,0-.47.292l-14.215,11.1-20.644,16.126-6.916,5.4v.006h-.006l-25.363,19.8-4.193,3.281-4.029,3.143a2.04,2.04,0,0,1-1.625.393l-5.015-.954-21.208-4.036L676.1,363.956l-46.491-8.848a2.779,2.779,0,0,0-1.2.026,2.841,2.841,0,0,0-1.384.8,3.185,3.185,0,0,0-.382.5,2.819,2.819,0,0,0-.323,2.118Zm.789-.191a2.01,2.01,0,0,1,.357-1.7.263.263,0,0,1,.07-.091c.018-.029.048-.055.072-.085a2.045,2.045,0,0,1,1.846-.594l46.2,8.789,19.76,3.766,21.208,4.036,6.773,1.29a2.855,2.855,0,0,0,2.274-.551l5.44-4.246,3.44-2.688,24.419-19.079.941-.731,5.764-4.5,20.527-16.03,14.84-11.589a2.015,2.015,0,0,1,.764-.369,1.548,1.548,0,0,1,.236-.039,1.247,1.247,0,0,1,.21-.02,2.072,2.072,0,0,1,.7.114,2.032,2.032,0,0,1,1.305,1.434l23.931,98.856a2.028,2.028,0,0,1-1.5,2.45L653.49,458.718a2.027,2.027,0,0,1-2.444-1.5Zm68.306,10.089,21.208,4.036,6.773,1.29a2.855,2.855,0,0,0,2.274-.551l5.44-4.246-1.909.462-4.029,3.143a2.04,2.04,0,0,1-1.625.393l-5.015-.954-21.208-4.036Zm0,0,21.208,4.036,6.773,1.29a2.855,2.855,0,0,0,2.274-.551l5.44-4.246-1.909.462-4.029,3.143a2.04,2.04,0,0,1-1.625.393l-5.015-.954-21.208-4.036Zm0,0,21.208,4.036,6.773,1.29a2.855,2.855,0,0,0,2.274-.551l5.44-4.246-1.909.462-4.029,3.143a2.04,2.04,0,0,1-1.625.393l-5.015-.954-21.208-4.036Z" transform="translate(-382.807 -228.075)" fill="#3f3d56"/>
    <path id="Path_26" data-name="Path 26" d="M827.078,419.156a6.292,6.292,0,0,1,4.629-7.587l21.861-5.292a6.285,6.285,0,0,1,2.957,12.216l-21.861,5.292A6.292,6.292,0,0,1,827.078,419.156Z" transform="translate(-428.142 -249.081)" fill="#6c63ff"/>
    <circle id="Ellipse_3" data-name="Ellipse 3" cx="5.418" cy="5.418" r="5.418" transform="translate(151.931 140.879)" fill="#fff"/>
  </g>
</svg>
