<svg xmlns="http://www.w3.org/2000/svg" xmlns:xlink="http://www.w3.org/1999/xlink" width="418.667" height="245.96" viewBox="0 0 418.667 245.96">
  <defs>
    <linearGradient id="linear-gradient" x1="0.5" y1="1" x2="0.5" gradientUnits="objectBoundingBox">
      <stop offset="0" stop-color="gray" stop-opacity="0.251"/>
      <stop offset="0.54" stop-color="gray" stop-opacity="0.122"/>
      <stop offset="1" stop-color="gray" stop-opacity="0.102"/>
    </linearGradient>
  </defs>
  <g id="mudancas" transform="translate(-53.624 0)">
    <path id="Path_65" data-name="Path 65" d="M430.813,308.342a71.948,71.948,0,0,1-9.2,35.453,45.869,45.869,0,0,1-14.9,33.561,51.28,51.28,0,0,1-7.422,5.782c-.106.072-.215.14-.324.208-.2.125-.394.249-.6.378l-.187.117h0a54.913,54.913,0,0,1-28.549,7.862H104.467a69.012,69.012,0,0,1-46.831-17.862C45.644,362.8,38.253,347.533,38.253,330.69A71.792,71.792,0,0,1,28,293.429c0-37.439,27.9-67.79,62.323-67.79,1.218,0,2.426.045,3.627.117,21.6-39.5,70.316-67.046,126.914-67.046,34.8,0,66.6,10.4,90.964,27.594a58.139,58.139,0,0,1,30.253-8.516c34.415,0,62.323,30.351,62.323,67.79q-.008,3.553-.352,7.092c16.835,12.781,26.818,33.55,26.76,55.671Z" transform="translate(41.478 -145.742)" fill="#f9a826" opacity="0.1"/>
    <ellipse id="Ellipse_15" data-name="Ellipse 15" cx="125.187" cy="3.965" rx="125.187" ry="3.965" transform="translate(53.624 176.078)" fill="#f9a826" opacity="0.1"/>
    <g id="Group_15" data-name="Group 15" transform="translate(53.624 69.584)" opacity="0.7">
      <rect id="Rectangle_58" data-name="Rectangle 58" width="47.205" height="26.057" transform="translate(0 81.192)" fill="#65617d"/>
      <rect id="Rectangle_59" data-name="Rectangle 59" width="14.35" height="3.021" transform="translate(16.616 85.724)" opacity="0.1"/>
      <rect id="Rectangle_60" data-name="Rectangle 60" width="10.763" height="2.266" transform="translate(18.41 86.101)" opacity="0.1"/>
      <rect id="Rectangle_61" data-name="Rectangle 61" width="47.205" height="26.057" transform="translate(47.96 81.192)" fill="#65617d"/>
      <rect id="Rectangle_62" data-name="Rectangle 62" width="14.35" height="3.021" transform="translate(64.576 85.724)" opacity="0.1"/>
      <rect id="Rectangle_63" data-name="Rectangle 63" width="10.763" height="2.266" transform="translate(66.37 86.101)" opacity="0.1"/>
      <rect id="Rectangle_64" data-name="Rectangle 64" width="47.205" height="26.057" transform="translate(0 54.38)" fill="#65617d"/>
      <rect id="Rectangle_65" data-name="Rectangle 65" width="14.35" height="3.021" transform="translate(16.616 58.912)" opacity="0.1"/>
      <rect id="Rectangle_66" data-name="Rectangle 66" width="10.763" height="2.266" transform="translate(18.41 59.289)" opacity="0.1"/>
      <rect id="Rectangle_67" data-name="Rectangle 67" width="47.205" height="26.057" transform="translate(47.96 54.38)" fill="#65617d"/>
      <rect id="Rectangle_68" data-name="Rectangle 68" width="14.35" height="3.021" transform="translate(64.576 58.912)" opacity="0.1"/>
      <rect id="Rectangle_69" data-name="Rectangle 69" width="10.763" height="2.266" transform="translate(66.37 59.289)" opacity="0.1"/>
      <rect id="Rectangle_70" data-name="Rectangle 70" width="47.205" height="26.057" transform="translate(0 27.19)" fill="#65617d"/>
      <rect id="Rectangle_71" data-name="Rectangle 71" width="14.35" height="3.021" transform="translate(16.616 31.722)" opacity="0.1"/>
      <rect id="Rectangle_72" data-name="Rectangle 72" width="10.763" height="2.266" transform="translate(18.41 32.099)" opacity="0.1"/>
      <rect id="Rectangle_73" data-name="Rectangle 73" width="47.205" height="26.057" transform="translate(47.96 27.19)" fill="#65617d"/>
      <rect id="Rectangle_74" data-name="Rectangle 74" width="14.35" height="3.021" transform="translate(64.576 31.722)" opacity="0.1"/>
      <rect id="Rectangle_75" data-name="Rectangle 75" width="10.763" height="2.266" transform="translate(66.37 32.099)" opacity="0.1"/>
      <rect id="Rectangle_76" data-name="Rectangle 76" width="47.205" height="26.057" transform="translate(47.96)" fill="#65617d"/>
      <rect id="Rectangle_77" data-name="Rectangle 77" width="14.35" height="3.021" transform="translate(64.576 4.532)" opacity="0.1"/>
      <rect id="Rectangle_78" data-name="Rectangle 78" width="10.763" height="2.266" transform="translate(66.37 4.909)" opacity="0.1"/>
    </g>
    <g id="Group_16" data-name="Group 16" transform="translate(149.544 69.206)" opacity="0.7">
      <rect id="Rectangle_79" data-name="Rectangle 79" width="47.205" height="26.057" transform="translate(0 81.192)" fill="#65617d"/>
      <rect id="Rectangle_80" data-name="Rectangle 80" width="14.35" height="3.021" transform="translate(16.616 85.724)" opacity="0.1"/>
      <rect id="Rectangle_81" data-name="Rectangle 81" width="10.763" height="2.266" transform="translate(18.41 86.101)" opacity="0.1"/>
      <rect id="Rectangle_82" data-name="Rectangle 82" width="47.205" height="26.057" transform="translate(47.96 81.192)" fill="#65617d"/>
      <rect id="Rectangle_83" data-name="Rectangle 83" width="14.35" height="3.021" transform="translate(64.576 85.724)" opacity="0.1"/>
      <rect id="Rectangle_84" data-name="Rectangle 84" width="10.763" height="2.266" transform="translate(66.37 86.101)" opacity="0.1"/>
      <rect id="Rectangle_85" data-name="Rectangle 85" width="47.205" height="26.057" transform="translate(0 54.38)" fill="#65617d"/>
      <rect id="Rectangle_86" data-name="Rectangle 86" width="14.35" height="3.021" transform="translate(16.616 58.912)" opacity="0.1"/>
      <rect id="Rectangle_87" data-name="Rectangle 87" width="10.763" height="2.266" transform="translate(18.41 59.289)" opacity="0.1"/>
      <rect id="Rectangle_88" data-name="Rectangle 88" width="47.205" height="26.057" transform="translate(47.96 54.38)" fill="#65617d"/>
      <rect id="Rectangle_89" data-name="Rectangle 89" width="14.35" height="3.021" transform="translate(64.576 58.912)" opacity="0.1"/>
      <rect id="Rectangle_90" data-name="Rectangle 90" width="10.763" height="2.266" transform="translate(66.37 59.289)" opacity="0.1"/>
      <rect id="Rectangle_91" data-name="Rectangle 91" width="47.205" height="26.057" transform="translate(0 27.19)" fill="#65617d"/>
      <rect id="Rectangle_92" data-name="Rectangle 92" width="14.35" height="3.021" transform="translate(16.616 31.722)" opacity="0.1"/>
      <rect id="Rectangle_93" data-name="Rectangle 93" width="10.763" height="2.266" transform="translate(18.41 32.099)" opacity="0.1"/>
      <rect id="Rectangle_94" data-name="Rectangle 94" width="47.205" height="26.057" transform="translate(47.96 27.19)" fill="#65617d"/>
      <rect id="Rectangle_95" data-name="Rectangle 95" width="14.35" height="3.021" transform="translate(64.576 31.722)" opacity="0.1"/>
      <rect id="Rectangle_96" data-name="Rectangle 96" width="10.763" height="2.266" transform="translate(66.37 32.099)" opacity="0.1"/>
      <rect id="Rectangle_97" data-name="Rectangle 97" width="47.205" height="26.057" transform="translate(47.96)" fill="#65617d"/>
      <rect id="Rectangle_98" data-name="Rectangle 98" width="14.35" height="3.021" transform="translate(64.576 4.532)" opacity="0.1"/>
      <rect id="Rectangle_99" data-name="Rectangle 99" width="10.763" height="2.266" transform="translate(66.37 4.909)" opacity="0.1"/>
    </g>
    <path id="Path_66" data-name="Path 66" d="M859.551,124.412s-31.793-1.918-28.055,20.362a5.414,5.414,0,0,0,2.825,5.725s.057-1.65,3.263-1.088a14.916,14.916,0,0,0,3.455.166,7.2,7.2,0,0,0,4.222-1.745h0s8.939-3.693,12.413-18.3c0,0,2.572-3.187,2.47-4.007l-5.366,2.292s1.835,3.871.378,7.088c0,0-.174-6.949-1.2-6.8-.208.034-2.787,1.341-2.787,1.341s3.153,6.741.774,11.643c0,0,.9-8.308-1.76-11.155l-3.776,2.205s3.686,6.964,1.186,12.647c0,0,.642-8.716-1.983-12.111l-3.421,2.67s3.463,6.865,1.352,11.578c0,0-.276-10.147-2.092-10.914,0,0-2.995,2.643-3.452,3.724,0,0,2.372,4.985.9,7.613,0,0-.9-6.76-1.643-6.8,0,0-2.983,4.479-3.293,7.553a16.28,16.28,0,0,1,2.572-7.979,8.978,8.978,0,0,0-4.569,2.368s.465-3.168,5.306-3.444c0,0,2.466-3.4,3.123-3.606,0,0-4.811-.4-7.73.891,0,0,2.568-2.987,8.614-1.628l3.38-2.761s-6.337-.865-9.026.091c0,0,3.093-2.643,9.936-.714l3.686-2.183s-5.4-1.163-8.622-.755c0,0,3.4-1.832,9.7.155l2.643-1.182s-3.958-.778-5.117-.9-1.22-.442-1.22-.442a13.727,13.727,0,0,1,7.436.827S859.649,124.763,859.551,124.412Z" transform="translate(-527.875 -124.37)" fill="#f9a826" opacity="0.1"/>
    <path id="Path_67" data-name="Path 67" d="M781.344,139.459s-14.35-.869-12.67,9.2a2.457,2.457,0,0,0,1.273,2.587s.026-.755,1.477-.495a6.613,6.613,0,0,0,1.56.076,3.236,3.236,0,0,0,1.907-.789h0s4.041-1.665,5.612-8.266c0,0,1.159-1.443,1.114-1.813L779.192,141a4.348,4.348,0,0,1,.177,3.206s-.079-3.142-.544-3.066c-.094,0-1.261.6-1.261.6s1.427,3.048.351,5.264c0,0,.408-3.754-.8-5.041l-1.707,1s1.669,3.146.536,5.714c0,0,.291-3.939-.895-5.472l-1.545,1.2s1.563,3.1.612,5.234c0,0-.125-4.588-.948-4.932a9.475,9.475,0,0,0-1.56,1.684s1.073,2.266.408,3.437c0,0-.408-3.055-.755-3.066a10.245,10.245,0,0,0-1.488,3.4,7.383,7.383,0,0,1,1.163-3.606,4.063,4.063,0,0,0-2.066,1.069s.211-1.427,2.4-1.556a10.326,10.326,0,0,1,1.412-1.628,8.855,8.855,0,0,0-3.493.4s1.159-1.352,3.893-.736l1.511-1.246a13.03,13.03,0,0,0-4.078.042s1.4-1.193,4.49-.325l1.662-.993a14.934,14.934,0,0,0-3.9-.336s1.537-.831,4.384.068l1.19-.532s-1.79-.355-2.315-.408-.551-.2-.551-.2a6.19,6.19,0,0,1,3.361.378A15.258,15.258,0,0,0,781.344,139.459Z" transform="translate(-488.883 -133.749)" fill="#f9a826" opacity="0.1"/>
    <ellipse id="Ellipse_16" data-name="Ellipse 16" cx="15.185" cy="2.568" rx="15.185" ry="2.568" transform="translate(69.478 238.35)" fill="#f9a826"/>
    <path id="Path_68" data-name="Path 68" d="M245.677,739.675a4.4,4.4,0,0,0,1.446-2.187,1.95,1.95,0,0,0-1.012-2.224c-.929-.355-1.922.291-2.674.94s-1.616,1.393-2.6,1.254a3.965,3.965,0,0,0,1.224-3.7,1.555,1.555,0,0,0-.34-.755c-.517-.551-1.45-.317-2.069.117-1.964,1.382-2.511,4.052-2.523,6.45a12.124,12.124,0,0,1-.034-2.643,2.723,2.723,0,0,0-1-2.353,2.987,2.987,0,0,0-1.511-.355,3.136,3.136,0,0,0-2.466.7,2.434,2.434,0,0,0,.094,3.021,9.615,9.615,0,0,0,2.557,2.047,5.664,5.664,0,0,1,1.824,1.741,1.576,1.576,0,0,1,.136.313h5.536A15.4,15.4,0,0,0,245.677,739.675Z" transform="translate(-154.735 -502.956)" fill="#f9a826"/>
    <path id="Path_69" data-name="Path 69" d="M723.042,463.92a1.718,1.718,0,0,0-.94-1.352,1.756,1.756,0,0,0-2.326.982L711.388,481.2,709.5,550.683h3.021l1.133-69.331,9.229-16.337A1.793,1.793,0,0,0,723.042,463.92Z" transform="translate(-452.14 -334.764)" fill="#3f3d56"/>
    <path id="Path_70" data-name="Path 70" d="M632.706,723.345a54.673,54.673,0,0,1-7.961,5.782,1.329,1.329,0,0,1-.147.174,2.458,2.458,0,0,1-1.039.521h0a62.163,62.163,0,0,1-30.619,7.862H385.308C361.516,735.236,347,731.992,347,728.431c0-2.76,8.716-5.332,23.723-7.485q2.334-.34,4.868-.657,1.56-.2,3.191-.378l1.847-.215q2.054-.234,4.218-.457h.117l1.511-.151q1.915-.2,3.909-.378l.967-.087,2.466-.219q2.4-.215,4.909-.412,2.081-.162,4.23-.325c14.524-1.076,31.268-1.888,49.489-2.413l5.2-.177,1.752-.038,3.7-.083,1.484-.03,1.56-.03,1.11-.019,5.211-.083,2.677-.038h.548q9.5-.113,19.35-.117c12.983,0,25.574.155,37.571.449h0q10.332.249,20.034.634h.06c18.648.733,35.339,1.813,49.153,3.153l.253.026c3.546.344,6.9.71,10.053,1.088,2.964.355,5.748.729,8.331,1.11.9.132,1.764.268,2.609.4l.215.038C626.9,722.117,630.044,722.706,632.706,723.345Z" transform="translate(-226.534 -491.731)" fill="#f9a826" opacity="0.1"/>
    <path id="Path_71" data-name="Path 71" d="M862.272,455.876a1.313,1.313,0,0,1-.147.174,2.457,2.457,0,0,1-1.038.521h0a10.469,10.469,0,0,1-2.341.378h-.238a10.176,10.176,0,0,1-1.356-.045,6.292,6.292,0,0,0-.993-.064h-.045a7.064,7.064,0,0,0-1.416.351,12.557,12.557,0,0,1-3.134.446h-.378c-1.186,0-2.387-.042-3.576-.034h-.578c-2.039.053-4.067.378-6.107.412h-.653a9.607,9.607,0,0,1-5.63-1.684,2.224,2.224,0,0,1-.755-.846,2.375,2.375,0,0,1-.132-1.133,2.666,2.666,0,0,1,.683-1.888,2.972,2.972,0,0,1,1.088-.525c.691-.223,1.386-.438,2.077-.653s1.48-.446,2.224-.665l.143-.045.415-.125.268-.091a4.392,4.392,0,0,0,.929-.423,3.079,3.079,0,0,0,.955-.955c.042-.068.087-.14.125-.211s0-.117-.026-.177c-.064-.472-.113-.955-.2-1.416a5.664,5.664,0,0,1-2.791-1.579,8.97,8.97,0,0,1-1.628-2.2,46.085,46.085,0,0,1-2.126-5.619,50.07,50.07,0,0,0-4.222-8.1c-1.443-2.409-2.893-4.826-4.532-7.1-1.092-1.511-2.266-2.949-3.346-4.464a39.65,39.65,0,0,1-6.45-14.086,18.646,18.646,0,0,0-.782-2.863,29.1,29.1,0,0,0-2.76-4.328,14.328,14.328,0,0,1-2-5.125c-.189-1.035-.506-2.153-1.537-2.266h0l-.109.215c-2.137,4.154-4.331,8.384-7.553,11.775a12.456,12.456,0,0,0-1.408,1.62,15.541,15.541,0,0,0-.906,1.745,11.33,11.33,0,0,1-2.005,2.934,5.73,5.73,0,0,1-.793.668,4.266,4.266,0,0,1-1.242.623h0a3.673,3.673,0,0,1-.536.121c0,.045.019.087.023.132s.023.1.03.147a17.748,17.748,0,0,1-.691,9.037c-.026.091-.057.177-.091.268q-.234.634-.51,1.246c-.461,1-1.008,1.96-1.439,2.976-.072.174-.143.347-.208.521-1.51,4.045-1.133,8.561-1.329,12.908a14.219,14.219,0,0,1-.336,2.825c-.257,1.046-.669,2.126-.9,3.206a5.425,5.425,0,0,0-.049,2.474l-.091.034c-.4.151-.816.287-1.227.415v.057c.147.846.291,1.692.438,2.534a3.708,3.708,0,0,0,.778,2.024,2.76,2.76,0,0,1,.378.378c.3.468.034,1.088.091,1.643.083.786.808,1.454.695,2.236a1.473,1.473,0,0,1-.884,1.05,2.614,2.614,0,0,1-.582.185l-.125.026c-.227.042-.453.064-.68.087a31.681,31.681,0,0,1-8.452.083c-.551-.094-1.1-.219-1.658-.264a12.37,12.37,0,0,0-2.115.087,103.852,103.852,0,0,1-15.555.3c-1.348-.076-2.9-.295-3.61-1.446a4.182,4.182,0,0,1-.079-3.282,3.534,3.534,0,0,1,.457-1.133.721.721,0,0,1,.083-.106c.695-.865,2-.918,3.127-.884l3.678.11a3.449,3.449,0,0,0,1.08-.083,11.364,11.364,0,0,0,1.609-.918c.7-.336,1.586-.378,2.092-.952l.064-.083a4.5,4.5,0,0,0,.249-.378c0-.026.034-.053.053-.079h0a.721.721,0,0,1,.045-.068,5.976,5.976,0,0,1,1.937-1.2,1.987,1.987,0,0,0,.283-.2l.076-.068a7.746,7.746,0,0,1-1.835-1.847,1.856,1.856,0,0,1-.419-.733,1.062,1.062,0,0,1,.045-.616.914.914,0,0,1,.06-.14l.019-.038c.257-.506.786-.963,1.076-1.48a.239.239,0,0,0,.026-.053,2.333,2.333,0,0,0-.113-2.534c.3-4.973,1.669-9.819,1.971-14.807.121-1.975.072-3.958.162-5.94s.3-3.9.525-5.85c.5-4.445,1.707-8.8,1.537-13.263a8.074,8.074,0,0,1,.053-1.246.724.724,0,0,1,0-.091,7.658,7.658,0,0,1,.842-2.613,20.071,20.071,0,0,1,1.854-2.613c2.322-3.021,5.113-6.042,5.94-9.758a21.088,21.088,0,0,1,2.311-5.4,9.51,9.51,0,0,1,2.02-2.836,8.886,8.886,0,0,0,1.333-1.133c.619-.8.642-1.907,1.008-2.859.189-.495.48-.948.623-1.458a.765.765,0,0,1,.038-.155,10.237,10.237,0,0,0,.132-1.556,3.483,3.483,0,0,1,.041-.446h0a15.777,15.777,0,0,1,1.288-4.316c.079-.174.155-.351.23-.525a16.183,16.183,0,0,1-4.532-3.931,9.283,9.283,0,0,1-1.1-1.658,20.519,20.519,0,0,1-1.322-5c-.876-4.033-2.882-7.832-3.161-11.956a13.224,13.224,0,0,0-.438-3.746,7.49,7.49,0,0,0-.427-.937c-.068-.128-.132-.257-.2-.378l-.076-.143-.193-.378-.31.242a226.221,226.221,0,0,1-24.282,16.586l-.725.431a2.643,2.643,0,0,0-.959.785c-.03.049-.057.1-.083.147h0c-.174.359-.219.755-.378,1.133a3.093,3.093,0,0,1-2.1,1.673,6.5,6.5,0,0,1-4.777-.616,5.763,5.763,0,0,1-.544-.3,7.365,7.365,0,0,1-1.39.593,16.46,16.46,0,0,1-4.656.415,13.986,13.986,0,0,0-4.641.514,11.6,11.6,0,0,1-2.976.944,2.79,2.79,0,0,1-.355,0,5.141,5.141,0,0,1-1.684-.495l-.31-.14a5.091,5.091,0,0,1-.468-.253,2.585,2.585,0,0,1-.457-.359,1.669,1.669,0,0,1-.423-.721,1.2,1.2,0,0,1,0-.6.377.377,0,0,1,.128-.227.407.407,0,0,1,.223-.057,6.791,6.791,0,0,1,1.292.11,4.658,4.658,0,0,0,.755.042h.136a1.639,1.639,0,0,0,1.133-.642.708.708,0,0,0,.1-.181h0a.834.834,0,0,0,.068-.336.625.625,0,0,0,0-.087c-.159-.072-.317-.143-.468-.23-.079-.042-.155-.087-.23-.132l-.045-.03a2.566,2.566,0,0,1-.378-.313,1.323,1.323,0,0,1-.193-.242,1.444,1.444,0,0,1-.223-.453h0a2.03,2.03,0,0,0-.94.026c-.412.113-.827.355-1.235.438a1.1,1.1,0,0,1-.623-.026c-.589-.212-.8-.929-.921-1.545-.023-.117-.049-.238-.068-.359h0a1.914,1.914,0,0,1,0-.7,2.587,2.587,0,0,1,.993-1.3l1.239-1.039.091-.076a2.169,2.169,0,0,0-.057-.306,1.929,1.929,0,0,1,0-.706,2.575,2.575,0,0,1,.993-1.292l2.742-2.307a3.222,3.222,0,0,1,1.741-.929c.993-.068,1.786.755,2.53,1.416a5.743,5.743,0,0,0,3.323,1.594,4.884,4.884,0,0,0,1.756-.242l.321-.106c-.068-.14-.136-.279-.2-.419-.11-.23-.219-.465-.325-.7a7.5,7.5,0,0,0,4.29-2.043c1.22-1.057,2.266-2.307,3.5-3.346,1.329-1.133,2.855-1.975,4.2-3.066,3.134-2.542,5.215-6.276,8.569-8.516a11.132,11.132,0,0,0,3.3-2.568c.246-.378.431-.755.684-1.133.8-1.133,2.183-1.654,3.32-2.44a16.507,16.507,0,0,0,3.051-3.044c.657-.789,1.318-1.579,1.945-2.39.578-1.076,1.065-2.2,1.669-3.263a16.024,16.024,0,0,1,1.786-2.523c.155-.3.313-.6.483-.9s.294-.495.453-.755c.109-.17.223-.332.34-.5-.344-.608-.672-1.133-.827-1.363l-.075-.1a11.34,11.34,0,0,0-1.065-1,10.068,10.068,0,0,1-1.171-.249,11.016,11.016,0,0,1-8.1-10.638.1.1,0,0,1,0-.034,10.951,10.951,0,0,1,1.2-4.977c.159-.31.328-.608.513-.9a3.4,3.4,0,0,1-.5-.2,1.991,1.991,0,0,1-.7-.578,1.673,1.673,0,0,1-.291-.733,3.735,3.735,0,0,1,.272-1.828,8.705,8.705,0,0,1,.351-.816.307.307,0,0,0,.026-.049,10.5,10.5,0,0,1,8.882-5.634c3.878-.155,7.655,1.665,10.714,4.271a14.348,14.348,0,0,1,2.432,2.557,15.469,15.469,0,0,1,2.53,7.874,12.084,12.084,0,0,1-.045,2.613,6.22,6.22,0,0,1-.189.914c-.049.177-.113.355-.181.532a3.464,3.464,0,0,1-.17.378v.019c-.057.121-.121.234-.185.347l-.034.049-.049.079c.03.072.064.147.1.219s.064.14.1.208H795c.755.06,1.454.166,2.224.227a5.114,5.114,0,0,1,1.072.166,7.17,7.17,0,0,1,1.96,1.224c1.571,1.11,3.5,1.628,5.049,2.776,2.266,1.692,3.4,4.486,4.773,6.99,1.813,3.353,4.766,6.208,6.069,9.8q.884,2.443,1.775,4.879a76,76,0,0,0,3.894,9.384c2.19,4.177,5.155,7.93,6.911,12.319a1.964,1.964,0,0,0,.921,1.02,80.158,80.158,0,0,1,6.363,10.646,19.963,19.963,0,0,1,2.171,6.167,14.879,14.879,0,0,1-.472,5.763,28.009,28.009,0,0,1-1.106,3.27,5.39,5.39,0,0,0-.378,1.167v.125a10.657,10.657,0,0,0,.276,2.168,4.01,4.01,0,0,1-.193,1.73c-.03.087-.064.174-.1.261a9.317,9.317,0,0,0-.593,1.375,1.372,1.372,0,0,0-.03.174,7,7,0,0,0,.378,2.466,33.1,33.1,0,0,1,.378,9.063c-.087,1.51,1.133,2.723,2.153,3.837a41.343,41.343,0,0,1,4.789,6.964,22.32,22.32,0,0,1,1.952,3.9,32.662,32.662,0,0,1,1.054,4.815c.963,4.985,4.109,9.388,4.962,14.384a12.839,12.839,0,0,0,2.919,6.186,13.123,13.123,0,0,1,1.258,1.511,6.065,6.065,0,0,1,.623,1.359,10.085,10.085,0,0,1,.517,3.448,5.185,5.185,0,0,0,.094,1.677c.355,1.159,1.624,1.8,2.149,2.889s.162,2.489.378,3.727a4.022,4.022,0,0,0,1.511,2.515c-.3.264-.619.506-.944.755a3.778,3.778,0,0,1,.782.823,3.7,3.7,0,0,1,.378.668c.5,1.159.514,2.538.922,3.776a2.719,2.719,0,0,1,.268,1.579,1.731,1.731,0,0,0-.128.468c0,.34.355.563.491.872a.937.937,0,0,1-.2.91Z" transform="translate(-464.06 -218.481)" fill="url(#linear-gradient)"/>
    <path id="Path_72" data-name="Path 72" d="M863.818,336.158a23.6,23.6,0,0,0,6.386-3.214l7.028-4.475a6.112,6.112,0,0,1-4.532-3.157,15.939,15.939,0,0,1-1.715-5.442,28.478,28.478,0,0,0-8.078,5.287c-.967.835-3.021,2.1-3.319,3.4s1.6,2.36,2.341,3.233C862.182,332.079,864.565,335.95,863.818,336.158Z" transform="translate(-545.529 -246.042)" fill="#fbbebe"/>
    <path id="Path_73" data-name="Path 73" d="M863.818,336.158a23.6,23.6,0,0,0,6.386-3.214l7.028-4.475a6.112,6.112,0,0,1-4.532-3.157,15.939,15.939,0,0,1-1.715-5.442,28.478,28.478,0,0,0-8.078,5.287c-.967.835-3.021,2.1-3.319,3.4s1.6,2.36,2.341,3.233C862.182,332.079,864.565,335.95,863.818,336.158Z" transform="translate(-545.529 -246.042)" opacity="0.1"/>
    <path id="Path_74" data-name="Path 74" d="M743.959,457.911a7.816,7.816,0,0,1-3.943,1.193,5.728,5.728,0,0,1-3.319-1.582c-.755-.657-1.533-1.477-2.526-1.409a3.237,3.237,0,0,0-1.737.921l-2.738,2.292a2.575,2.575,0,0,0-.993,1.284,2.546,2.546,0,0,0,.064,1.065c.125.612.332,1.326.922,1.533s1.231-.238,1.854-.408a2.183,2.183,0,0,1,2.141.631,1.273,1.273,0,0,1,.378.823c0,.684-.755,1.133-1.45,1.167s-1.359-.193-2.047-.151a.313.313,0,0,0-.351.279,1.443,1.443,0,0,0,.442,1.314,3.833,3.833,0,0,0,1.231.755,5.021,5.021,0,0,0,1.684.491,8.939,8.939,0,0,0,3.323-.94,14.368,14.368,0,0,1,4.637-.51,16.369,16.369,0,0,0,4.649-.412,5.273,5.273,0,0,0,3.508-2.855.687.687,0,0,0,.064-.438.725.725,0,0,0-.317-.378c-2.107-1.56-2.961-3.455-5.332-4.577Z" transform="translate(-464.073 -330.832)" fill="#fbbebe"/>
    <path id="Path_75" data-name="Path 75" d="M743.959,457.911a7.816,7.816,0,0,1-3.943,1.193,5.728,5.728,0,0,1-3.319-1.582c-.755-.657-1.533-1.477-2.526-1.409a3.237,3.237,0,0,0-1.737.921l-2.738,2.292a2.575,2.575,0,0,0-.993,1.284,2.546,2.546,0,0,0,.064,1.065c.125.612.332,1.326.922,1.533s1.231-.238,1.854-.408a2.183,2.183,0,0,1,2.141.631,1.273,1.273,0,0,1,.378.823c0,.684-.755,1.133-1.45,1.167s-1.359-.193-2.047-.151a.313.313,0,0,0-.351.279,1.443,1.443,0,0,0,.442,1.314,3.833,3.833,0,0,0,1.231.755,5.021,5.021,0,0,0,1.684.491,8.939,8.939,0,0,0,3.323-.94,14.368,14.368,0,0,1,4.637-.51,16.369,16.369,0,0,0,4.649-.412,5.273,5.273,0,0,0,3.508-2.855.687.687,0,0,0,.064-.438.725.725,0,0,0-.317-.378c-2.107-1.56-2.961-3.455-5.332-4.577Z" transform="translate(-464.073 -330.832)" opacity="0.1"/>
    <path id="Path_76" data-name="Path 76" d="M809.432,353.031a4.554,4.554,0,0,0-4-.465,8.624,8.624,0,0,0-3.44,2.292,15.825,15.825,0,0,0-2.428,3.206c-.642,1.133-1.133,2.319-1.775,3.448a36.676,36.676,0,0,1-4.1,5.57,15.813,15.813,0,0,1-3.047,3.021c-1.186.808-2.511,1.3-3.316,2.424-.253.355-.434.755-.684,1.114a10.965,10.965,0,0,1-3.3,2.549c-3.346,2.228-5.427,5.936-8.554,8.463-1.348,1.088-2.87,1.941-4.2,3.051-1.235,1.031-2.266,2.266-3.5,3.323a7.48,7.48,0,0,1-4.282,2.028,22.059,22.059,0,0,0,4.192,6.6c1.839,1.862,4.6,3.051,7.107,2.322a3.088,3.088,0,0,0,2.1-1.662,7.1,7.1,0,0,1,.446-1.288,2.643,2.643,0,0,1,.956-.782,225.755,225.755,0,0,0,28.742-19.913c2.428-1.979,4.838-3.75,7.33-5.665a16.021,16.021,0,0,0,2.466-2.16,8.21,8.21,0,0,0,1-9.044,21.45,21.45,0,0,0-2.288-3.1A27.247,27.247,0,0,0,809.432,353.031Z" transform="translate(-485.324 -266.227)" fill="#f9a826"/>
    <path id="Path_77" data-name="Path 77" d="M809.432,353.031a4.554,4.554,0,0,0-4-.465,8.624,8.624,0,0,0-3.44,2.292,15.825,15.825,0,0,0-2.428,3.206c-.642,1.133-1.133,2.319-1.775,3.448a36.676,36.676,0,0,1-4.1,5.57,15.813,15.813,0,0,1-3.047,3.021c-1.186.808-2.511,1.3-3.316,2.424-.253.355-.434.755-.684,1.114a10.965,10.965,0,0,1-3.3,2.549c-3.346,2.228-5.427,5.936-8.554,8.463-1.348,1.088-2.87,1.941-4.2,3.051-1.235,1.031-2.266,2.266-3.5,3.323a7.48,7.48,0,0,1-4.282,2.028,22.059,22.059,0,0,0,4.192,6.6c1.839,1.862,4.6,3.051,7.107,2.322a3.088,3.088,0,0,0,2.1-1.662,7.1,7.1,0,0,1,.446-1.288,2.643,2.643,0,0,1,.956-.782,225.755,225.755,0,0,0,28.742-19.913c2.428-1.979,4.838-3.75,7.33-5.665a16.021,16.021,0,0,0,2.466-2.16,8.21,8.21,0,0,0,1-9.044,21.45,21.45,0,0,0-2.288-3.1A27.247,27.247,0,0,0,809.432,353.031Z" transform="translate(-485.324 -266.227)" opacity="0.1"/>
    <path id="Path_78" data-name="Path 78" d="M818.957,721.205a5.781,5.781,0,0,0-1.937,1.2c-.151.2-.253.427-.415.616-.5.589-1.393.616-2.092.952a10.15,10.15,0,0,1-1.6.91,3.484,3.484,0,0,1-1.084.083l-3.671-.109c-1.163-.034-2.526.026-3.2.974a3.459,3.459,0,0,0-.461,1.133,4.2,4.2,0,0,0,.079,3.263c.71,1.133,2.266,1.363,3.606,1.439a104.106,104.106,0,0,0,15.536-.3,12.288,12.288,0,0,1,2.107-.087c.559.045,1.106.17,1.658.264a31.753,31.753,0,0,0,8.44-.083,4.411,4.411,0,0,0,1.386-.294,1.469,1.469,0,0,0,.88-1.046c.117-.778-.612-1.439-.691-2.221-.057-.551.208-1.167-.094-1.635a2.7,2.7,0,0,0-.378-.378,3.717,3.717,0,0,1-.778-2.009L835.581,720a1.193,1.193,0,0,0-.317-.733,1.091,1.091,0,0,0-.468-.193c-2.878-.649-5.827-.057-8.686.306a23.346,23.346,0,0,1-4.445.223c-.642-.042-.891-.117-1.371.3S819.558,720.854,818.957,721.205Z" transform="translate(-511.077 -494.309)" fill="#3f3d56"/>
    <path id="Path_79" data-name="Path 79" d="M1014.376,730.273a6.365,6.365,0,0,1-1.609.631q-2.224.65-4.441,1.356a2.946,2.946,0,0,0-1.084.521,2.636,2.636,0,0,0-.683,1.888,2.367,2.367,0,0,0,.132,1.133,2.265,2.265,0,0,0,.755.838,9.913,9.913,0,0,0,6.023,1.677c2.122,0,4.229-.359,6.352-.415,2.564-.068,5.2.295,7.662-.423a6.519,6.519,0,0,1,1.458-.355,6.18,6.18,0,0,1,.989.064,10.493,10.493,0,0,0,3.935-.359,2.42,2.42,0,0,0,1.042-.517.974.974,0,0,0,.28-1.065c-.136-.306-.483-.529-.487-.865a1.628,1.628,0,0,1,.125-.468,2.652,2.652,0,0,0-.268-1.567c-.487-1.458-.408-3.134-1.28-4.4a5.571,5.571,0,0,0-4-1.986,11.083,11.083,0,0,0-3.72.106c-1.378.295-2.666.91-4.018,1.3a13.139,13.139,0,0,1-4.834.457c-1.08-.091-.71.079-1.076.986A3.212,3.212,0,0,1,1014.376,730.273Z" transform="translate(-637.006 -498.709)" fill="#3f3d56"/>
    <circle id="Ellipse_17" data-name="Ellipse 17" cx="10.952" cy="10.952" r="10.952" transform="translate(306.075 62.975)" fill="#fbbebe"/>
    <path id="Path_80" data-name="Path 80" d="M928.678,478.185a19.406,19.406,0,0,1-12.462,4.241,10.235,10.235,0,0,1-5.457-1.163c-.113-.619-.159-1.288-.272-1.907a6.964,6.964,0,0,1-4.411-3.758,45.177,45.177,0,0,1-2.126-5.581,49.844,49.844,0,0,0-4.214-8.055c-1.443-2.394-2.889-4.8-4.532-7.058-1.088-1.511-2.266-2.93-3.342-4.437a39.276,39.276,0,0,1-6.439-14,18.278,18.278,0,0,0-.782-2.844,28.953,28.953,0,0,0-2.757-4.3,14.209,14.209,0,0,1-2-5.094c-.185-1.027-.5-2.137-1.533-2.243h0c-2.168,4.211-4.377,8.489-7.655,11.915a12.345,12.345,0,0,0-1.409,1.609,15.473,15.473,0,0,0-.906,1.737,11.193,11.193,0,0,1-2,2.915,4.668,4.668,0,0,1-2.576,1.4,17.613,17.613,0,0,1-1.239,10.763c-.457,1-1,1.949-1.435,2.957-1.76,4.154-1.352,8.841-1.537,13.346a14.028,14.028,0,0,1-.332,2.806c-.457,1.843-1.4,3.8-.944,5.646-4.736,1.809-10,1.7-15.011.933a7.232,7.232,0,0,1-2.8-.85,7.7,7.7,0,0,1-1.835-1.835,1.839,1.839,0,0,1-.419-.729c-.2-.861.755-1.511,1.2-2.266a2.291,2.291,0,0,0-.087-2.572c.3-4.943,1.669-9.769,1.971-14.728.121-1.964.072-3.935.162-5.9s.3-3.882.521-5.816c.5-4.415,1.707-8.742,1.537-13.18a7.665,7.665,0,0,1,.91-3.924,19.791,19.791,0,0,1,1.85-2.6c2.319-2.995,5.106-6,5.933-9.694a21,21,0,0,1,2.307-5.366,9.5,9.5,0,0,1,2.017-2.821,8.836,8.836,0,0,0,1.333-1.133c.619-.8.642-1.888,1.008-2.84.189-.491.48-.944.619-1.45a8.269,8.269,0,0,0,.17-1.7,15.9,15.9,0,0,1,1.563-5.268,16.136,16.136,0,0,1-4.532-3.9,9.552,9.552,0,0,1-1.1-1.65,20.258,20.258,0,0,1-1.322-4.962c-.872-4.011-2.878-7.783-3.157-11.88a13.2,13.2,0,0,0-.434-3.724,11.7,11.7,0,0,0-.7-1.454,5.948,5.948,0,0,1-.6-1.465,25.507,25.507,0,0,1,0-3.4,24.535,24.535,0,0,0-.729-2.915,13.842,13.842,0,0,1-.109-3.852,31.546,31.546,0,0,0,.295-4.562,17.624,17.624,0,0,1,4.739-13.572l.087-.087c.721-.755,1.511-1.424,2.16-2.224.884-1.073,1.51-2.334,2.443-3.376.408-.465.869-.88,1.273-1.348a11.2,11.2,0,0,1,1.227-1.375,1.888,1.888,0,0,1,1.707-.457,4.733,4.733,0,0,0,.521,1.609c.786.06,1.484.17,2.266.23a5.117,5.117,0,0,1,1.073.166,6.979,6.979,0,0,1,1.956,1.212c1.571,1.106,3.5,1.62,5.045,2.761,2.266,1.68,3.4,4.456,4.766,6.945,1.809,3.335,4.758,6.171,6.042,9.736l1.771,4.849a75.738,75.738,0,0,0,3.89,9.324c2.186,4.154,5.147,7.9,6.9,12.243a1.972,1.972,0,0,0,.918,1.012A78.98,78.98,0,0,1,904.03,387.8a19.682,19.682,0,0,1,2.168,6.129,17.836,17.836,0,0,1-1.575,8.977,4.681,4.681,0,0,0-.378,1.284,10.5,10.5,0,0,0,.276,2.153,3.985,3.985,0,0,1-.291,1.979,9.07,9.07,0,0,0-.593,1.367,5.95,5.95,0,0,0,.355,2.621,32.645,32.645,0,0,1,.378,9c-.087,1.511,1.133,2.708,2.149,3.814a40.8,40.8,0,0,1,4.785,6.918,22.351,22.351,0,0,1,1.949,3.882,32.182,32.182,0,0,1,1.054,4.785c.959,4.951,4.1,9.328,4.955,14.294a12.7,12.7,0,0,0,2.915,6.144,13.381,13.381,0,0,1,1.257,1.511,6.08,6.08,0,0,1,.619,1.352,9.955,9.955,0,0,1,.517,3.425,5.115,5.115,0,0,0,.094,1.665c.355,1.152,1.624,1.786,2.145,2.87s.162,2.474.378,3.7A3.988,3.988,0,0,0,928.678,478.185Z" transform="translate(-532.257 -250.537)" fill="#f9a826"/>
    <path id="Path_81" data-name="Path 81" d="M749.959,448.911a7.815,7.815,0,0,1-3.943,1.193,5.728,5.728,0,0,1-3.319-1.582c-.755-.657-1.533-1.477-2.526-1.409a3.237,3.237,0,0,0-1.737.921l-2.738,2.292a2.575,2.575,0,0,0-.993,1.284,2.544,2.544,0,0,0,.064,1.065c.125.612.332,1.326.921,1.533s1.231-.238,1.854-.408a2.183,2.183,0,0,1,2.141.631,1.272,1.272,0,0,1,.378.823c0,.684-.755,1.133-1.45,1.167s-1.359-.193-2.047-.151a.313.313,0,0,0-.351.279,1.443,1.443,0,0,0,.442,1.314,3.833,3.833,0,0,0,1.231.755,5.021,5.021,0,0,0,1.684.491,8.941,8.941,0,0,0,3.323-.94,14.366,14.366,0,0,1,4.637-.51,16.368,16.368,0,0,0,4.649-.412,5.272,5.272,0,0,0,3.508-2.855.687.687,0,0,0,.064-.438.725.725,0,0,0-.317-.378c-2.107-1.56-2.961-3.455-5.332-4.577Z" transform="translate(-467.807 -325.231)" fill="#fbbebe"/>
    <path id="Path_82" data-name="Path 82" d="M844.433,287.595a9.367,9.367,0,0,0-1.828.793,3.149,3.149,0,0,1-2.583-.136,1.994,1.994,0,0,1-.706-.574,2.8,2.8,0,0,1-.019-2.545,10.38,10.38,0,0,1,9.252-6.458c3.875-.155,7.643,1.654,10.7,4.241a14.617,14.617,0,0,1,2.428,2.542,15.351,15.351,0,0,1,2.526,7.825,10.2,10.2,0,0,1-.23,3.5,4.26,4.26,0,0,1-1.986,2.677,3.923,3.923,0,0,1-3.467-.151,14.629,14.629,0,0,1-2.964-2.16,4.4,4.4,0,0,0-1.477-.94,1.511,1.511,0,0,0-1.6.378c-.506.608-.378,1.6-.838,2.266a2.637,2.637,0,0,1-2.228.755,2.453,2.453,0,0,1-2.111-.71,2.656,2.656,0,0,1-.211-2.164,7.092,7.092,0,0,0,.378-2.209c-.155-1.511-1.477-2.44-1.888-3.829-.268-.91.321-1.3.261-2.119A1.188,1.188,0,0,0,844.433,287.595Z" transform="translate(-532.734 -220.397)" fill="#3f3d56"/>
    <path id="Path_83" data-name="Path 83" d="M920.265,535.809v.094h0c-2.168,4.211-4.377,8.489-7.655,11.914a12.352,12.352,0,0,0-1.409,1.609,15.485,15.485,0,0,0-.906,1.737,11.193,11.193,0,0,1-2,2.915l-2.734,1.367,8.686-45.316Z" transform="translate(-574.16 -364.452)" opacity="0.1"/>
    <path id="Path_84" data-name="Path 84" d="M882.637,366.488a16.021,16.021,0,0,1-2.466,2.16c-2.492,1.888-4.909,3.671-7.33,5.665q-2.927,2.383-5.936,4.668a5.945,5.945,0,0,1-.6-1.465,25.507,25.507,0,0,1,0-3.4,24.561,24.561,0,0,0-.729-2.915,13.844,13.844,0,0,1-.109-3.852,31.555,31.555,0,0,0,.295-4.562,17.624,17.624,0,0,1,4.762-13.6l.087-.087a6.634,6.634,0,0,1,1.284-.574,4.554,4.554,0,0,1,4,.483,27.245,27.245,0,0,1,5.438,5.332,21.448,21.448,0,0,1,2.289,3.1,8.21,8.21,0,0,1-.982,9.044Z" transform="translate(-549.156 -263.717)" opacity="0.1"/>
    <path id="Path_85" data-name="Path 85" d="M815.432,344.031a4.554,4.554,0,0,0-4-.465,8.626,8.626,0,0,0-3.44,2.292,15.829,15.829,0,0,0-2.428,3.206c-.642,1.133-1.133,2.319-1.775,3.448a36.672,36.672,0,0,1-4.1,5.57,15.812,15.812,0,0,1-3.048,3.021c-1.186.808-2.511,1.3-3.316,2.424-.253.355-.434.755-.684,1.114a10.963,10.963,0,0,1-3.3,2.549c-3.346,2.228-5.427,5.936-8.554,8.463-1.348,1.088-2.87,1.941-4.2,3.051-1.235,1.031-2.266,2.266-3.5,3.323a7.479,7.479,0,0,1-4.282,2.028,22.059,22.059,0,0,0,4.192,6.6c1.839,1.862,4.6,3.051,7.107,2.322a3.088,3.088,0,0,0,2.1-1.662,7.11,7.11,0,0,1,.445-1.288,2.644,2.644,0,0,1,.956-.782,225.752,225.752,0,0,0,28.742-19.913c2.428-1.979,4.838-3.75,7.33-5.665a16.016,16.016,0,0,0,2.466-2.16,8.21,8.21,0,0,0,1-9.044,21.454,21.454,0,0,0-2.288-3.1A27.245,27.245,0,0,0,815.432,344.031Z" transform="translate(-489.058 -260.625)" fill="#f9a826"/>
    <g id="Group_17" data-name="Group 17" transform="translate(306.26 63.138)" opacity="0.1">
      <path id="Path_86" data-name="Path 86" d="M850.163,306.114a2.508,2.508,0,0,1-2.111-.71,2.671,2.671,0,0,1-.211-2.164,7.087,7.087,0,0,0,.378-2.209c-.155-1.511-1.477-2.44-1.888-3.829-.268-.91.321-1.3.261-2.119a1.2,1.2,0,0,0-1.412-.974,9.367,9.367,0,0,0-1.828.793,3.149,3.149,0,0,1-2.583-.136,1.993,1.993,0,0,1-.706-.574,2.8,2.8,0,0,1-.019-2.545c0-.03.026-.057.038-.087a9.13,9.13,0,0,0-.793,1.6,2.8,2.8,0,0,0,.019,2.545,1.993,1.993,0,0,0,.706.574,3.149,3.149,0,0,0,2.583.136,9.363,9.363,0,0,1,1.828-.793,1.2,1.2,0,0,1,1.412.974c.06.823-.529,1.208-.26,2.119.4,1.39,1.726,2.334,1.888,3.829a6.647,6.647,0,0,1-.378,2.209,2.629,2.629,0,0,0,.211,2.164,3.579,3.579,0,0,0,4.339-.045,3.182,3.182,0,0,0,.4-1.159A3.2,3.2,0,0,1,850.163,306.114Z" transform="translate(-838.987 -291.56)"/>
      <path id="Path_87" data-name="Path 87" d="M885.427,324.237a3.923,3.923,0,0,1-3.467-.151,14.62,14.62,0,0,1-2.965-2.16,4.4,4.4,0,0,0-1.476-.94,1.511,1.511,0,0,0-1.6.378,2.862,2.862,0,0,0-.472,1.269,1.6,1.6,0,0,1,1.314-.14,4.4,4.4,0,0,1,1.477.94,14.9,14.9,0,0,0,2.964,2.16,3.933,3.933,0,0,0,3.467.151,4.2,4.2,0,0,0,1.937-2.542A3.494,3.494,0,0,1,885.427,324.237Z" transform="translate(-861.68 -309.819)"/>
    </g>
    <circle id="Ellipse_18" data-name="Ellipse 18" cx="11.329" cy="11.329" r="11.329" transform="translate(224.694 217.24)" fill="#3f3d56"/>
    <circle id="Ellipse_19" data-name="Ellipse 19" cx="11.329" cy="11.329" r="11.329" transform="translate(224.694 217.24)" opacity="0.1"/>
    <circle id="Ellipse_20" data-name="Ellipse 20" cx="7.175" cy="7.175" r="7.175" transform="translate(228.848 221.394)" fill="#65617d"/>
    <circle id="Ellipse_21" data-name="Ellipse 21" cx="7.175" cy="7.175" r="7.175" transform="translate(228.848 221.394)" opacity="0.1"/>
    <path id="Path_88" data-name="Path 88" d="M630,680.763l7.432,16.8a1.443,1.443,0,0,0,2.617.053l8.833-17.991Z" transform="translate(-402.662 -469.942)" fill="#3f3d56"/>
    <path id="Path_89" data-name="Path 89" d="M630,680.763l7.432,16.8a1.443,1.443,0,0,0,2.617.053l8.833-17.991Z" transform="translate(-402.662 -469.942)" opacity="0.1"/>
    <circle id="Ellipse_22" data-name="Ellipse 22" cx="11.329" cy="11.329" r="11.329" transform="translate(154.076 217.24)" fill="#3f3d56"/>
    <circle id="Ellipse_23" data-name="Ellipse 23" cx="11.329" cy="11.329" r="11.329" transform="translate(154.076 217.24)" opacity="0.1"/>
    <circle id="Ellipse_24" data-name="Ellipse 24" cx="7.175" cy="7.175" r="7.175" transform="translate(158.23 221.394)" fill="#65617d"/>
    <circle id="Ellipse_25" data-name="Ellipse 25" cx="7.175" cy="7.175" r="7.175" transform="translate(158.23 221.394)" opacity="0.1"/>
    <path id="Path_90" data-name="Path 90" d="M443,680.763l7.432,16.8a1.443,1.443,0,0,0,2.617.053l8.833-17.991Z" transform="translate(-286.28 -469.942)" fill="#3f3d56"/>
    <path id="Path_91" data-name="Path 91" d="M443,680.763l7.432,16.8a1.443,1.443,0,0,0,2.617.053l8.833-17.991Z" transform="translate(-286.28 -469.942)" opacity="0.1"/>
    <path id="Path_92" data-name="Path 92" d="M731.154,465.92a1.718,1.718,0,0,0-.94-1.352,1.756,1.756,0,0,0-2.326.982l-6.5,16.136L719.5,554.193h3.021l1.133-72.352L731,467.015A1.794,1.794,0,0,0,731.154,465.92Z" transform="translate(-458.363 -336.009)" fill="#3f3d56"/>
    <path id="Path_93" data-name="Path 93" d="M368.5,550.624l10.2-6.42,110.081-.944,2.832,7.364Z" transform="translate(-229.341 -338.104)" fill="#f9a826"/>
    <path id="Path_94" data-name="Path 94" d="M368.5,567.566v-6.8l125.1-1.208-.121,4.607H370.766v3.4Z" transform="translate(-229.341 -348.249)" fill="#3f3d56"/>
    <circle id="Ellipse_26" data-name="Ellipse 26" cx="11.329" cy="11.329" r="11.329" transform="translate(143.691 221.205)" fill="#3f3d56"/>
    <circle id="Ellipse_27" data-name="Ellipse 27" cx="7.175" cy="7.175" r="7.175" transform="translate(147.845 225.36)" fill="#65617d"/>
    <path id="Path_95" data-name="Path 95" d="M415.5,691.263l7.432,16.8a1.443,1.443,0,0,0,2.617.053l8.833-17.991Z" transform="translate(-269.165 -476.477)" fill="#3f3d56"/>
    <circle id="Ellipse_28" data-name="Ellipse 28" cx="11.329" cy="11.329" r="11.329" transform="translate(231.681 221.205)" fill="#3f3d56"/>
    <circle id="Ellipse_29" data-name="Ellipse 29" cx="7.175" cy="7.175" r="7.175" transform="translate(235.835 225.36)" fill="#65617d"/>
    <path id="Path_96" data-name="Path 96" d="M648.5,691.263l7.432,16.8a1.442,1.442,0,0,0,2.617.053l8.833-17.991Z" transform="translate(-414.176 -476.477)" fill="#3f3d56"/>
    <rect id="Rectangle_100" data-name="Rectangle 100" width="47.205" height="26.057" transform="translate(153.321 182.875)" fill="#65617d"/>
    <rect id="Rectangle_101" data-name="Rectangle 101" width="14.35" height="3.021" transform="translate(169.937 187.407)" opacity="0.1"/>
    <rect id="Rectangle_102" data-name="Rectangle 102" width="10.763" height="2.266" transform="translate(171.731 187.785)" opacity="0.1"/>
    <rect id="Rectangle_103" data-name="Rectangle 103" width="47.205" height="26.057" transform="translate(201.281 182.875)" fill="#65617d"/>
    <rect id="Rectangle_104" data-name="Rectangle 104" width="14.35" height="3.021" transform="translate(217.897 187.407)" opacity="0.1"/>
    <rect id="Rectangle_105" data-name="Rectangle 105" width="10.763" height="2.266" transform="translate(219.691 187.785)" opacity="0.1"/>
    <rect id="Rectangle_106" data-name="Rectangle 106" width="47.205" height="26.057" transform="translate(153.321 156.063)" fill="#65617d"/>
    <rect id="Rectangle_107" data-name="Rectangle 107" width="14.35" height="3.021" transform="translate(169.937 160.595)" opacity="0.1"/>
    <rect id="Rectangle_108" data-name="Rectangle 108" width="10.763" height="2.266" transform="translate(171.731 160.972)" opacity="0.1"/>
    <rect id="Rectangle_109" data-name="Rectangle 109" width="47.205" height="26.057" transform="translate(201.281 156.063)" fill="#65617d"/>
    <rect id="Rectangle_110" data-name="Rectangle 110" width="14.35" height="3.021" transform="translate(217.897 160.595)" opacity="0.1"/>
    <rect id="Rectangle_111" data-name="Rectangle 111" width="10.763" height="2.266" transform="translate(219.691 160.972)" opacity="0.1"/>
    <rect id="Rectangle_112" data-name="Rectangle 112" width="47.205" height="26.057" transform="translate(153.321 128.873)" fill="#65617d"/>
    <rect id="Rectangle_113" data-name="Rectangle 113" width="14.35" height="3.021" transform="translate(169.937 133.405)" opacity="0.1"/>
    <rect id="Rectangle_114" data-name="Rectangle 114" width="10.763" height="2.266" transform="translate(171.731 133.782)" opacity="0.1"/>
    <rect id="Rectangle_115" data-name="Rectangle 115" width="47.205" height="26.057" transform="translate(201.281 128.873)" fill="#65617d"/>
    <rect id="Rectangle_116" data-name="Rectangle 116" width="14.35" height="3.021" transform="translate(217.897 133.405)" opacity="0.1"/>
    <rect id="Rectangle_117" data-name="Rectangle 117" width="10.763" height="2.266" transform="translate(219.691 133.782)" opacity="0.1"/>
    <rect id="Rectangle_118" data-name="Rectangle 118" width="47.205" height="26.057" transform="translate(201.281 101.683)" fill="#65617d"/>
    <rect id="Rectangle_119" data-name="Rectangle 119" width="14.35" height="3.021" transform="translate(217.897 106.215)" opacity="0.1"/>
    <rect id="Rectangle_120" data-name="Rectangle 120" width="10.763" height="2.266" transform="translate(219.691 106.592)" opacity="0.1"/>
  </g>
</svg>
