<svg xmlns="http://www.w3.org/2000/svg" xmlns:xlink="http://www.w3.org/1999/xlink" width="135.125" height="135.125" viewBox="0 0 135.125 135.125">
  <defs>
    <linearGradient id="linear-gradient" x1="0.5" y1="1" x2="0.5" gradientUnits="objectBoundingBox">
      <stop offset="0" stop-color="gray" stop-opacity="0.251"/>
      <stop offset="0.54" stop-color="gray" stop-opacity="0.122"/>
      <stop offset="1" stop-color="gray" stop-opacity="0.102"/>
    </linearGradient>
  </defs>
  <g id="person3" transform="translate(0)">
    <g id="Group_39" data-name="Group 39" transform="translate(0 0)" opacity="0.5">
      <ellipse id="Ellipse_53" data-name="Ellipse 53" cx="67.563" cy="67.563" rx="67.563" ry="67.563" transform="translate(0 0)" fill="url(#linear-gradient)"/>
    </g>
    <circle id="Ellipse_54" data-name="Ellipse 54" cx="66.134" cy="66.134" r="66.134" transform="translate(1.428 1.061)" fill="#f5f5f5"/>
    <path id="Path_149" data-name="Path 149" d="M541.71,188.56s-7.5,36.938-11.59,34.892c0,0,39.468,34.093,74.32,0,0,0-6.139-26.031-15-34.892Z" transform="translate(-499.945 -120.776)" fill="#333"/>
    <path id="Path_150" data-name="Path 150" d="M567.4,283.478A65.826,65.826,0,0,0,603.757,272.6c-2.437-13.315-11.712-14.079-11.712-14.079H540.9s-8.745.717-11.485,12.972A65.831,65.831,0,0,0,567.4,283.478Z" transform="translate(-499.653 -149.95)" fill="#6c63ff"/>
    <ellipse id="Ellipse_55" data-name="Ellipse 55" cx="29.319" cy="29.319" rx="29.319" ry="29.319" transform="translate(37.731 36.419)" fill="#333"/>
    <path id="Path_151" data-name="Path 151" d="M366.42,158.88h20.457v16.365a10.226,10.226,0,0,1-10.208,10.226h0a10.226,10.226,0,0,1-10.226-10.226V158.88Z" transform="translate(-309.672 -66.552)" opacity="0.1"/>
    <path id="Path_152" data-name="Path 152" d="M368.39,157.58h16.551a1.953,1.953,0,0,1,1.953,1.953v14.411a10.226,10.226,0,0,1-10.208,10.226h0a10.226,10.226,0,0,1-10.226-10.226V159.527A1.953,1.953,0,0,1,368.39,157.58Z" transform="translate(-309.689 -66.01)" fill="#be7c5e"/>
    <path id="Path_153" data-name="Path 153" d="M575.77,242.154a29.441,29.441,0,0,0,20.457.058V239.7H575.77Z" transform="translate(-518.981 -142.102)" opacity="0.1"/>
    <ellipse id="Ellipse_56" data-name="Ellipse 56" cx="29.319" cy="29.319" rx="29.319" ry="29.319" transform="translate(37.731 42.78)" fill="#be7c5e"/>
    <path id="Path_154" data-name="Path 154" d="M545.3,161.7h55.909s-4.775-22.573-25.908-21.133S545.3,161.7,545.3,161.7Z" transform="translate(-506.275 -100.733)" fill="#333"/>
    <ellipse id="Ellipse_57" data-name="Ellipse 57" cx="2.728" cy="5.113" rx="2.728" ry="5.113" transform="translate(35.609 65.738)" fill="#be7c5e"/>
    <ellipse id="Ellipse_58" data-name="Ellipse 58" cx="2.728" cy="5.113" rx="2.728" ry="5.113" transform="translate(92.882 65.738)" fill="#be7c5e"/>
    <path id="Path_155" data-name="Path 155" d="M545.3,163h55.909s-4.775-22.573-25.908-21.133S545.3,163,545.3,163Z" transform="translate(-506.275 -101.275)" opacity="0.1"/>
  </g>
</svg>
