<svg xmlns="http://www.w3.org/2000/svg" xmlns:xlink="http://www.w3.org/1999/xlink" width="135.125" height="135.125" viewBox="0 0 135.125 135.125">
  <defs>
    <linearGradient id="linear-gradient" x1="0.5" y1="1" x2="0.5" gradientUnits="objectBoundingBox">
      <stop offset="0" stop-color="gray" stop-opacity="0.251"/>
      <stop offset="0.54" stop-color="gray" stop-opacity="0.122"/>
      <stop offset="1" stop-color="gray" stop-opacity="0.102"/>
    </linearGradient>
  </defs>
  <g id="person2" transform="translate(0)">
    <g id="Group_37" data-name="Group 37" transform="translate(0 0)" opacity="0.5">
      <ellipse id="Ellipse_40" data-name="Ellipse 40" cx="67.563" cy="67.563" rx="67.563" ry="67.563" transform="translate(0 0)" fill="url(#linear-gradient)"/>
    </g>
    <circle id="Ellipse_41" data-name="Ellipse 41" cx="66.134" cy="66.134" r="66.134" transform="translate(1.428 1.061)" fill="#f5f5f5"/>
    <path id="Path_134" data-name="Path 134" d="M299.156,289.148a65.826,65.826,0,0,0,36.355-10.879C333.074,264.954,323.8,264.19,323.8,264.19H272.665s-8.745.717-11.485,12.972a65.832,65.832,0,0,0,37.976,11.986Z" transform="translate(-231.407 -155.631)" fill="#6c63ff"/>
    <ellipse id="Ellipse_42" data-name="Ellipse 42" cx="29.319" cy="29.319" rx="29.319" ry="29.319" transform="translate(37.737 36.419)" fill="#333"/>
    <path id="Path_135" data-name="Path 135" d="M98.18,164.57h20.457v16.365a10.226,10.226,0,0,1-10.226,10.226h0a10.226,10.226,0,0,1-10.226-10.226V164.57Z" transform="translate(-41.426 -72.242)" opacity="0.1"/>
    <path id="Path_136" data-name="Path 136" d="M100.137,163.27h16.551a1.953,1.953,0,0,1,1.953,1.953v14.412a10.226,10.226,0,0,1-10.226,10.226h0A10.226,10.226,0,0,1,98.19,179.635V165.223a1.953,1.953,0,0,1,1.947-1.953Z" transform="translate(-41.43 -71.7)" fill="#be7c5e"/>
    <path id="Path_137" data-name="Path 137" d="M307.53,247.844a29.441,29.441,0,0,0,20.457.058V245.39H307.53Z" transform="translate(-250.735 -147.792)" opacity="0.1"/>
    <ellipse id="Ellipse_43" data-name="Ellipse 43" cx="29.319" cy="29.319" rx="29.319" ry="29.319" transform="translate(37.737 42.786)" fill="#be7c5e"/>
    <path id="Path_138" data-name="Path 138" d="M275.287,154.707c.344-1.265.775-2.658,1.912-3.317a5.446,5.446,0,0,1,3.049-.391c8.1.443,16.137-1.4,24.019-3.335,4.507-1.1,9.328-2.443,12.243-6.075s-.886-15.047-5.323-16.394c-2.915-.892-6.3.77-9.06-.536a17.589,17.589,0,0,1-3.195-2.524c-2.175-1.749-4.967-2.454-7.672-3.119-3.16-.781-6.576-1.545-9.578-.291-2.332.968-4.034,3.014-6.244,4.227-4.2,2.332-9.328,1.248-14.143,1.236-1.627,0-3.568.326-4.215,1.819-.437,1.014-.087,2.169-.041,3.271.14,3.5-2.746,6.22-5.165,8.745s-4.7,6.127-3.177,9.264c.583,1.2,1.65,2.1,2.256,3.282,1.044,2.052.519,4.53.9,6.8a17.105,17.105,0,0,0,1.906,4.9c1.8,3.5,10.814,22.329,14.96,17.542,2.005-2.332,2.332-9.071,3.142-12.1Q273.538,161.166,275.287,154.707Z" transform="translate(-225.995 -94.694)" fill="#333"/>
    <ellipse id="Ellipse_44" data-name="Ellipse 44" cx="2.728" cy="5.113" rx="2.728" ry="5.113" transform="translate(43.468 65.925)" fill="#be7c5e"/>
  </g>
</svg>
